<?xml version="1.0" encoding="utf-8"?>
<!-- Generator: Adobe Illustrator 24.1.0, SVG Export Plug-In . SVG Version: 6.00 Build 0)  -->
<svg version="1.1" id="Layer_1" xmlns="http://www.w3.org/2000/svg" xmlns:xlink="http://www.w3.org/1999/xlink" x="0px" y="0px"
	 viewBox="0 0 200 200" style="enable-background:new 0 0 200 200;" xml:space="preserve">
<style type="text/css">
	.st0{fill:#40B5BC;}
	.st1{fill:#000066;}
	.st2{fill:#FFFFFF;}
</style>
<g>
	<circle class="st0" cx="100" cy="100" r="97"/>
	<path class="st1" d="M100,6c51.83,0,94,42.17,94,94s-42.17,94-94,94S6,151.83,6,100S48.17,6,100,6 M100,0C44.77,0,0,44.77,0,100
		s44.77,100,100,100s100-44.77,100-100S155.23,0,100,0L100,0z"/>
</g>
<g>
	<path class="st2" d="M146.75,108.04c0.69-0.98,1.42-1.93,2.06-2.94c1.62-2.58,3.77-4.55,6.5-5.91c1.25-0.62,2.41-1.41,3.65-2.04
		c1.35-0.69,2.58,0.11,2.36,1.61c-0.67,4.44-1.36,8.81-4.27,12.59c-3.46,4.49-6.58,9.24-9.78,13.92c-0.46,0.67-0.76,1.58-0.76,2.39
		c-0.06,6.29-0.01,12.57-0.03,18.86c-0.01,3.33-1.56,5.9-4.43,6.44c-2.36,0.44-4.86,0.28-7.28,0.19c-0.42-0.02-1.08-1-1.13-1.58
		c-0.07-0.87,0.68-1.39,1.57-1.41c1.4-0.04,2.79-0.02,4.19-0.02c2.93-0.01,3.91-0.99,3.91-3.94c0.01-4.54,0-9.08,0-13.62
		c0-0.38-0.04-0.76-0.07-1.51c-0.48,0.66-0.78,1.05-1.06,1.45c-6.45,9.22-12.91,18.44-19.35,27.68c-1.25,1.8-2.86,2.81-5.09,2.54
		c-3.79-0.46-5.72-4.53-3.74-7.8c0.29-0.47,0.6-0.93,1.05-1.64c-0.78,0-1.33,0-1.87,0c-12.62,0-25.23,0-37.85,0
		c-1.93,0-2.65-0.41-2.68-1.53c-0.03-1.18,0.76-1.65,2.72-1.64c13.58,0,27.15,0,40.73,0.03c0.95,0,1.48-0.32,2.01-1.08
		c8.05-11.57,16.13-23.12,24.23-34.65c0.7-1,1.04-1.94,1.02-3.21c-0.1-5.76-0.04-11.52-0.04-17.29c0-6.5,0-13.01,0-19.51
		c0-0.48-0.09-1.06,0.14-1.4c0.33-0.48,0.95-1.1,1.4-1.06c0.53,0.04,1.22,0.61,1.48,1.12c0.27,0.53,0.15,1.28,0.15,1.93
		c0,10.48-0.01,20.96-0.01,31.43c0,0.51,0,1.02,0,1.53C146.57,107.98,146.66,108.01,146.75,108.04z M157.58,101.61
		c-2.39,1.08-4.28,2.54-5.75,4.65c-11.46,16.46-22.97,32.88-34.46,49.32c-0.27,0.39-0.6,0.77-0.78,1.2
		c-0.4,0.94-0.28,1.84,0.59,2.44c0.91,0.63,1.82,0.51,2.6-0.28c0.24-0.25,0.43-0.55,0.63-0.84c11.64-16.65,23.28-33.3,34.94-49.94
		C156.73,106.21,157.3,104.04,157.58,101.61z"/>
	<path class="st2" d="M92.64,123.52c1.42,0,2.71,0,4.08,0c0-1.75,0.08-3.44-0.03-5.12c-0.08-1.34-1.03-2.2-2-3.09
		c-1.89-1.73-3.7-3.55-5.43-5.44c-0.9-0.98-0.78-2.09,0.09-2.6c1.04-0.62,1.72-0.08,2.46,0.71c1.59,1.72,3.21,3.44,4.99,4.95
		c2.01,1.7,3.12,3.71,3.14,6.32c0.01,1.39,0,2.78,0,4.25c1.18,0,2.25,0,3.44,0c0-1.38,0.02-2.72,0-4.06
		c-0.04-2.73,1.03-4.9,3.22-6.53c2.23-1.65,4.18-3.56,5.62-5.96c1.72-2.88,1.92-5.94,1.01-9.09c-1.1-3.8-4.92-5.36-8.44-3.52
		c-1.25,0.65-2.26,0.44-2.61-0.59c-0.35-1.01,0.18-1.63,1.01-2.14c4.64-2.83,10.83-0.71,12.76,4.51c2.04,5.52,0.96,10.58-2.86,15
		c-1.27,1.48-2.73,2.83-4.27,4.03c-1.59,1.24-2.39,2.7-2.28,4.7c0.06,1.17,0.01,2.35,0.01,3.72c1.67,0,3.26-0.01,4.86,0
		c1.6,0.01,2.12,0.51,2.14,2.1c0.02,1.61,0.04,3.23,0,4.84c-0.16,5.7-4.19,10.05-9.87,10.43c-2.15,0.15-4.4,0.09-6.49-0.4
		c-4.51-1.05-7.63-5.25-7.68-9.9c-0.04-3.4-0.04-6.81,0.01-10.21c0.02-1.09-0.38-1.75-1.29-2.34c-8.16-5.29-12.23-12.83-12.06-22.55
		c0.21-12.02,9.88-22.65,21.8-24.13c15.25-1.89,28.37,9.02,28.84,24.37c0.29,9.41-3.83,16.83-11.69,22.1
		c-0.81,0.55-1.55,1.02-1.69,2.14c-0.11,0.9-0.83,1.33-1.74,1.19c-0.91-0.15-1.31-0.78-1.29-1.69c0.05-1.9,1.11-3.11,2.66-4.07
		c4.56-2.8,7.74-6.75,9.44-11.81c4.16-12.34-2.93-25.37-15.56-28.65c-12.31-3.2-25.03,5.04-27.33,17.71
		c-1.56,8.56,2.26,17.57,9.71,22.31c2.43,1.54,3.62,3.39,3.33,6.24C92.57,122,92.64,122.74,92.64,123.52z M92.67,126.78
		c0,1.56-0.09,3,0.02,4.43c0.26,3.42,2.97,6.23,6.39,6.57c1.6,0.16,3.23,0.15,4.83,0c2.53-0.23,4.37-1.62,5.58-3.83
		c1.24-2.27,0.88-4.71,0.84-7.17C104.4,126.78,98.61,126.78,92.67,126.78z"/>
	<path class="st2" d="M148.3,67.81c-3.51,0.52-6.87,1.03-10.29,1.54c-0.18,2-0.36,3.95-0.54,5.9c-0.28,2.97-2.12,5.13-5.01,5.8
		c-1.19,0.28-2.39,0.48-3.6,0.67c-1.4,0.22-1.8-0.17-2.26-1.51c-1.3-3.78-2.63-7.56-4.06-11.29c-0.83-2.17-2.45-3.76-4.65-4.52
		c-4.77-1.65-9.58-3.21-14.4-4.71c-1.71-0.53-3.34-1.03-4.22-2.77c-0.78-1.55-0.7-2.63,0.46-5.26c-1.43-0.9-2.55-2.12-2.35-3.9
		c0.11-1.02,0.52-2.15,1.16-2.94c1.57-1.93,3.33-3.69,5.04-5.5c1.53-1.62,3.4-2.21,5.59-1.77c0.17,0.03,0.35,0.05,0.51,0.11
		c2.15,0.69,3.98,0.65,5.65-1.34c1.09-1.3,2.9-1.48,4.63-1.12c5.63,1.16,10.82,3.34,15.51,6.66c1.36,0.96,2.72,1.4,4.4,1.15
		c1.93-0.28,3.9-0.35,5.83-0.51c0.38-2.51,0.37-2.55,2.87-2.85c3.51-0.42,7.02-0.78,10.54-1.15c1.5-0.16,2.11,0.25,2.34,1.95
		c0.68,4.92,1.4,9.84,1.85,14.79c0.35,3.91,0.35,7.85,0.47,11.77c0.07,2.02-0.32,2.38-2.37,2.63c-3.42,0.41-6.83,0.9-10.26,1.3
		c-2.16,0.26-2.54-0.09-2.72-2.24C148.41,68.45,148.35,68.2,148.3,67.81z M129.76,78.26c3.5-0.17,4.54-1.3,4.7-4.27
		c0.09-1.83,0.3-3.66,0.32-5.49c0.01-1.35,0.59-2.02,1.89-2.17c0.87-0.1,1.73-0.24,2.59-0.37c2.88-0.43,5.76-0.86,8.78-1.32
		c-0.61-6.39-1.21-12.65-1.81-19.01c-1.33,0.11-2.51,0.12-3.66,0.31c-3.68,0.61-6.95,0.15-10.09-2.24c-3.79-2.87-8.29-4.4-12.94-5.4
		c-1.06-0.23-1.92,0.02-2.78,0.9c0.58,0.21,1.04,0.35,1.47,0.54c2.15,0.95,4.3,1.89,6.42,2.9c0.89,0.42,1.33,1.19,0.82,2.16
		c-0.54,1-1.41,1.1-2.34,0.56c-4.37-2.52-9.17-3.75-14.08-4.63c-2-0.36-2.99,0.1-4.03,2.02c0.27,0.06,0.51,0.1,0.75,0.17
		c3.4,0.94,6.81,1.82,10.18,2.87c1.48,0.46,2.87,1.25,4.26,1.97c0.87,0.45,1.08,1.3,0.63,2.13c-0.45,0.83-1.24,1.05-2.13,0.6
		c-0.19-0.1-0.39-0.2-0.58-0.3c-4.82-2.52-10.04-3.68-15.34-4.58c-0.64-0.11-2.12,1.12-2.23,1.87c-0.17,1.2,0.75,1.28,1.57,1.46
		c1.87,0.42,3.76,0.78,5.6,1.31c2.89,0.82,5.75,1.74,8.62,2.64c1,0.31,1.57,0.97,1.25,2.08c-0.27,0.97-1.13,1.26-2.36,0.86
		c-0.25-0.08-0.49-0.2-0.74-0.27c-3.43-0.98-6.86-1.99-10.31-2.9c-0.41-0.11-1.13,0.12-1.39,0.44c-1.45,1.81-1.03,2.74,1.18,3.43
		c5.07,1.58,10.13,3.19,15.13,4.95c2.97,1.04,5.08,3.21,6.32,6.1C126.9,71.07,128.27,74.59,129.76,78.26z M160.58,66.55
		c-0.12-8.4-0.51-16.57-2.05-24.77c-3.18,0.33-6.23,0.65-9.4,0.98c0.8,8.39,1.58,16.62,2.37,24.95
		C154.61,67.31,157.53,66.94,160.58,66.55z"/>
	<path class="st2" d="M65.07,149.42c0.21,0.16,0.27,0.23,0.35,0.25c2.91,0.81,2.97,0.92,2.25,3.86c-0.78,3.22-1.55,6.44-2.34,9.65
		c-0.37,1.53-0.93,1.93-2.4,1.74c-7.66-0.97-15.28-2.14-22.75-4.13c-1.43-0.38-2.83-0.87-4.24-1.31c-1.04-0.33-1.49-1.01-1.25-2.1
		c0.85-3.92,1.71-7.83,2.56-11.75c0.35-1.64,1.62-1.4,2.9-1.34c0.47-2.47,1.07-4.89,1.34-7.34c0.1-0.94-0.39-2.04-0.86-2.93
		c-2.62-4.95-4.27-10.19-4.86-15.76c-0.27-2.5,0.53-4.49,2.6-5.88c0.96-0.65,1.36-1.39,1.09-2.51c-1.04-4.36,0.61-7.46,4.42-9.6
		c0.83-0.47,1.55-1.13,2.32-1.7c3.18-2.35,5.53-2.05,8.01,1.09c0.44-0.21,0.89-0.45,1.36-0.65c2.6-1.14,5.4,0.26,5.94,3.05
		c0.82,4.23,1.54,8.49,2.33,12.73c0.17,0.9,0.48,1.77,0.67,2.66c0.7,3.39,2.56,5.88,5.68,7.38c3.13,1.51,6.26,3.03,9.44,4.45
		c1.42,0.64,1.79,1.12,1.36,2.58c-0.36,1.21-0.71,2.43-1.14,3.61c-0.92,2.51-3.14,4.08-5.81,4.1c-1.74,0.02-3.49-0.01-5.23-0.11
		c-0.78-0.05-1.15,0.09-1.36,0.93C66.7,143.42,65.87,146.4,65.07,149.42z M77.52,132.32c-3.53-1.9-6.88-3.65-10.17-5.51
		c-2.73-1.55-4.68-3.87-5.38-6.95c-1.24-5.48-2.29-11-3.41-16.5c-0.16-0.79-0.25-1.63-1.37-1.52c-1.24,0.12-2.54,1.28-2.39,2.15
		c0.64,3.74,1.27,7.47,1.95,11.2c0.26,1.43-0.01,2.19-1.01,2.44c-1.06,0.26-1.78-0.29-2.09-1.76c-0.5-2.34-0.99-4.69-1.37-7.06
		c-0.38-2.37-0.62-4.76-0.94-7.13c-0.13-0.97-0.7-1.57-1.69-1.4c-0.91,0.16-1.73,0.52-1.67,1.76c0.31,5.46,0.95,10.86,3.02,15.99
		c0.41,1.02,0.2,1.85-0.83,2.27c-1,0.41-1.74-0.1-2.06-1.04c-0.66-1.93-1.4-3.86-1.81-5.86c-0.66-3.18-1.07-6.41-1.59-9.6
		c-1.93,0.89-2.47,1.75-2.31,3.77c0.39,4.97,1.03,9.89,3.09,14.51c0.43,0.95,0.23,1.78-0.71,2.2c-1,0.44-1.77,0.01-2.19-1.02
		c-0.1-0.24-0.21-0.48-0.29-0.73c-0.79-2.42-1.57-4.84-2.37-7.3c-0.98,0.6-1.12,1.54-1.03,2.59c0.5,5.33,2.07,10.32,4.7,14.98
		c1.01,1.79,1.36,3.63,0.91,5.66c-0.48,2.15-0.85,4.33-1.28,6.6c6.29,1.3,12.46,2.58,18.69,3.88c0.99-3.74,1.95-7.36,2.91-10.98
		c0.43-1.63,0.78-1.86,2.5-1.78c2.18,0.1,4.36,0.2,6.54,0.25c1.48,0.03,2.48-0.73,3.02-2.08C77.17,133.64,77.35,132.88,77.52,132.32
		z M62.4,161.76c0.77-3.16,1.47-6.06,2.19-9.03c-8.24-1.71-16.33-3.39-24.55-5.09c-0.57,2.63-1.03,5.2-1.72,7.7
		c-0.37,1.34,0.05,1.77,1.26,2.04c3.32,0.72,6.6,1.62,9.93,2.25C53.74,160.44,58.01,161.05,62.4,161.76z"/>
	<path class="st2" d="M79.77,49.5c0,4.13,0,8.1,0,12.06c0,0.65,0,1.31-0.11,1.95c-0.51,2.89-2.72,4.8-5.64,4.83
		c-3.88,0.04-7.77,0.02-11.65,0.02c-0.43,0-0.86,0-1.42,0c-0.03,0.6-0.08,1.11-0.08,1.61c0,7.33,0,14.66,0,21.99
		c0,1.97-0.46,2.79-1.57,2.81c-1.14,0.02-1.61-0.81-1.61-2.75c0.01-8.12,0.02-16.23-0.01-24.35c0-1.09,0.34-1.88,1.12-2.64
		c5.93-5.86,11.83-11.74,17.71-17.65c0.73-0.74,1.5-1.06,2.54-1.05c3.88,0.04,7.77,0.02,11.65,0.02c0.26,0,0.52-0.01,0.78,0.01
		c0.96,0.08,1.6,0.6,1.6,1.56c0,1.03-0.64,1.57-1.69,1.57c-3.36,0-6.72,0.01-10.08,0.01C80.85,49.5,80.42,49.5,79.77,49.5z
		 M76.58,52.2c-4.36,4.39-8.65,8.72-12.89,12.99c3.37,0,6.94,0.03,10.5-0.02c1.29-0.02,2.33-1,2.36-2.36
		C76.64,59.26,76.58,55.7,76.58,52.2z"/>
	<path class="st2" d="M95.55,96.52c-3.33-0.6-5.38,0.84-5.82,3.96c-0.09,0.65-0.11,1.3-0.17,1.95c-0.08,0.91-0.55,1.47-1.47,1.52
		c-0.94,0.05-1.45-0.5-1.63-1.37c-0.61-2.95,1.35-7.13,3.98-8.52c3.11-1.64,7.08-1.08,9.39,1.46c2.61,2.87,3.3,6.25,2.23,9.97
		c-0.48,1.68-1.84,2.77-3.49,2.9c-1.71,0.14-3.28-0.74-4.02-2.35c-1.28-2.8-1.17-5.58,0.3-8.29C95.06,97.38,95.28,97.01,95.55,96.52
		z M98.16,98.47c-1.38,2-1.71,3.91-0.81,5.95c0.15,0.34,0.66,0.81,0.87,0.75c0.37-0.11,0.8-0.53,0.9-0.9
		C99.67,102.3,99.36,100.43,98.16,98.47z"/>
	<path class="st2" d="M98.16,98.47c1.2,1.95,1.51,3.83,0.96,5.81c-0.1,0.37-0.54,0.79-0.9,0.9c-0.21,0.06-0.72-0.42-0.87-0.75
		C96.46,102.39,96.78,100.48,98.16,98.47z"/>
	<path class="st2" d="M154.94,62.08c0.07-0.98,0.56-1.59,1.54-1.6c0.99-0.01,1.56,0.61,1.56,1.56c0,0.89-0.56,1.5-1.47,1.53
		C155.61,63.6,155.06,63.04,154.94,62.08z"/>
	<path class="st2" d="M59.94,156.91c-0.04,1.11-0.58,1.7-1.54,1.72c-0.96,0.02-1.58-0.6-1.58-1.56c0-0.89,0.53-1.47,1.46-1.52
		C59.3,155.49,59.78,156.09,59.94,156.91z"/>
</g>
<g>
	<path class="st2" d="M100,196.01c-52.94,0-96.01-43.07-96.01-96.01C3.99,47.06,47.06,3.99,100,3.99
		c52.94,0,96.01,43.07,96.01,96.01C196.01,152.94,152.94,196.01,100,196.01z M100,7.24C48.85,7.24,7.24,48.85,7.24,100
		c0,51.15,41.61,92.76,92.76,92.76c51.15,0,92.76-41.61,92.76-92.76C192.76,48.85,151.15,7.24,100,7.24z"/>
</g>
</svg>
