<?xml version="1.0" encoding="utf-8"?>
<!-- Generator: Adobe Illustrator 24.1.0, SVG Export Plug-In . SVG Version: 6.00 Build 0)  -->
<svg version="1.1" id="Layer_1" xmlns="http://www.w3.org/2000/svg" xmlns:xlink="http://www.w3.org/1999/xlink" x="0px" y="0px"
	 viewBox="0 0 1781.6 1714.6" style="enable-background:new 0 0 1781.6 1714.6;" xml:space="preserve">
<style type="text/css">
	.st0{fill:url(#SVGID_1_);}
	.st1{fill:url(#SVGID_2_);}
	.st2{display:none;fill:#BDEDE3;}
	.st3{fill:#A9E7E0;}
	.st4{fill:#BDEDE3;}
	.st5{fill:#97E1DD;}
	.st6{display:none;}
	.st7{display:inline;}
	.st8{fill:#F1F2F2;}
	.st9{fill:#FFFFFF;}
	.st10{fill:#1266B2;}
	.st11{fill:#03B4C4;}
	.st12{fill:#F27C7C;}
	.st13{fill:#E6E7E8;}
	.st14{fill:url(#SVGID_3_);}
	.st15{fill:url(#SVGID_4_);}
	.st16{fill:url(#SVGID_5_);}
	.st17{fill:url(#SVGID_6_);}
	.st18{fill:url(#SVGID_7_);}
	.st19{fill:url(#SVGID_8_);}
	.st20{fill:url(#SVGID_9_);}
	.st21{font-family:'ArialMT';}
	.st22{font-size:50.1697px;}
	.st23{letter-spacing:3;}
	.st24{fill:url(#SVGID_10_);}
	.st25{font-size:37.9434px;}
	.st26{letter-spacing:1;}
	.st27{display:inline;fill:#FFFFFF;}
	.st28{fill:url(#SVGID_11_);}
	.st29{fill:url(#SVGID_12_);}
	.st30{fill:#C49A85;}
	.st31{fill:url(#SVGID_13_);}
	.st32{fill:url(#SVGID_14_);}
	.st33{fill:#1E8C94;}
	.st34{fill:url(#SVGID_15_);}
	.st35{fill:url(#SVGID_16_);}
	.st36{fill:url(#SVGID_17_);}
	.st37{fill:url(#SVGID_18_);}
	.st38{fill:url(#SVGID_19_);}
	.st39{fill:url(#SVGID_20_);}
	.st40{fill:#40B5BC;}
	.st41{fill:url(#SVGID_21_);}
	.st42{fill:url(#SVGID_22_);}
	.st43{fill:url(#SVGID_23_);}
	.st44{fill:url(#SVGID_24_);}
	.st45{fill:url(#SVGID_25_);}
	.st46{fill:url(#SVGID_26_);}
	.st47{fill:url(#SVGID_27_);}
	.st48{fill:#4AD3DB;}
	.st49{fill:#483DF6;}
	.st50{fill:#334EF6;}
	.st51{fill:#293FC7;}
	.st52{fill:url(#SVGID_28_);}
	.st53{fill:url(#SVGID_29_);}
	.st54{fill:#18056E;}
	.st55{fill:#180F45;}
</style>
<linearGradient id="SVGID_1_" gradientUnits="userSpaceOnUse" x1="-614.7617" y1="2860.0959" x2="2478.2114" y2="2860.0959">
	<stop  offset="0" style="stop-color:#483DF6"/>
	<stop  offset="1" style="stop-color:#18056E"/>
</linearGradient>
<rect x="-711.8" y="1967.4" class="st0" width="2340.8" height="1785.4"/>
<linearGradient id="SVGID_2_" gradientUnits="userSpaceOnUse" x1="2367.7666" y1="826.7234" x2="5460.7397" y2="826.7234">
	<stop  offset="0" style="stop-color:#293FC7"/>
	<stop  offset="1" style="stop-color:#18056E"/>
</linearGradient>
<rect x="2270.7" y="-66" class="st1" width="2340.8" height="1785.4"/>
<g>
	<g>
		<path class="st2" d="M163.6,849.6c11.5-18.8,21.6-38.4,29-59.1c3.8-14.2,6.1-28.6,7.2-43.2c0-32.6-5.4-64.8-12.5-96.5
			c-11.6-47.6-25.8-94.8-32.5-143.5c-7.7-55.4-4.6-111.5,14.8-164.2c16.7-45.3,51-84.6,90.8-111.4c34.9-23.5,74.4-39.6,114-53.3
			c36.2-12.4,72.8-23.5,107.8-38.9c36.9-16.2,72.2-35.6,107.8-54.3c35.1-18.4,70.6-36.2,108.2-48.9c22.7-7.6,46.2-13.5,69.9-17.3
			c14.4-2.3,28.8-3.2,43.3-3.2c9.7,0,19.5,0.4,29.2,1c26.7,1.7,52,8.9,77.3,17.4c21,7.1,41.1,16.7,60.3,27.7
			c43.7,24.9,83.9,55.2,125.2,83.8c6.7,4.7,13.5,9.2,20.3,13.7c47.3,29.4,97.9,52.9,150.7,70.2c53.9,16,109.4,25.5,165.5,28.2
			c28.8,0.8,57.7,0.7,86.6,2.2c32.6,1.7,63.1,7.4,94.2,17.7c41.1,13.5,75.6,40.7,100.5,75.1c-3.7-21.1-9-41.9-17.1-61.9
			c-14.7-36.4-33.3-69.2-60.8-97.7c-24-24.9-53.8-45.2-85.5-58.8c-18.4-7.9-36.8-15.1-56.2-20.1c-19.8-5-39.9-7.9-60.1-10.5
			c-22.6-2.9-45.4-4.1-68.2-4.1c-8.6,0-17.3,0.2-25.9,0.5c-54,2.1-108.1,8.5-162.2,8.5c-19.2,0-38.4-0.8-57.5-2.9
			c-34.6-5.6-67.9-16.2-100.3-29.4c-45.9-20.1-90.2-43.8-136.3-63.5c-25-10.7-50.1-20.8-76.2-28.5c-27.1-8-54.7-12.8-82.7-15.8
			c-9.2-1-18.2-1.4-27.3-1.4c-17.5,0-35,1.6-52.6,4.2c-26.4,3.9-50.6,12.6-74.8,23.7c-72.4,33-123.7,97.5-184.7,146.6
			c-23,16.8-47.7,30.4-73.7,41.9c-52.3,21.3-106.6,37.3-158,60.9c-51.9,23.8-97.3,58.8-129.4,106.4c-34.3,50.9-46.7,116.5-42.6,177
			c4.4,64.8,23,125.1,48.9,184.3c22.9,52.3,50.6,102.3,73.4,154.7c4.9,12,9.4,24.1,13.5,36.4C138.2,885.6,151.4,867.8,163.6,849.6z"
			/>
		<path class="st2" d="M218.9,1398.1c-13.5-6.6-27-13.7-40.1-21.4c22,32.1,51.9,58.5,85.4,78c74.1,43.1,163.4,58.7,247.4,67.8
			c36.5,3.9,73,5.6,109.5,5.6c132.4,0,264.5-22.1,395.6-38.6c11.6,0,22.3-2.9,32.3-8.7c23.7-11.8,46.7-25.2,70.8-36.2
			c0.6-0.2,1.3-0.5,1.9-0.7c-35.1-8.7-70.3-17-106.5-19.3c-1.4,0-2.7,0-4.1,0c-41.7,0-83.2,6.1-124.1,13.7
			c-48.5,9.1-96.4,20.7-144.5,31.2c-22.1,4.8-44.2,9.4-66.5,13.2c-3.2,0.9-6.6,1.5-10,1.7c-2.2,0.3-4.5,0.5-6.8,0.5
			c-0.5,0-1,0-1.5,0c-16.9,0.9-33.8,1.4-50.8,1.4C473.2,1486.3,339.4,1456.6,218.9,1398.1z"/>
		<path class="st2" d="M1417.5,1428.9c-15.1,8.9-30.2,16.2-45.8,22.2c1.5,0.1,3.1,0.3,4.6,0.4c12.7,1.1,25.3,1.6,37.9,1.6
			c23.1,0,46.1-1.8,69.3-5.3c58.7-8.7,116.4-37.4,155.1-83.1c35.8-42.3,59.4-93.3,69.9-147.8c10.6-54.6,11-108.7,3.7-163.7
			c-8.4-63.4-22.9-125.6-32.1-188.8c-1.6-13.6-2.8-27.2-3.5-40.8c-13.5,31.5-26.4,63.1-37.1,95.7
			c-36.6,124.2-35.9,260.2-100.2,375.5C1510,1347.5,1470.3,1397.8,1417.5,1428.9z"/>
		<path class="st3" d="M1726.4,392c3.1,30.2,2.6,60.7-0.5,90.9c-8.6,84.6-33.8,166-46.3,249.9c-3.6,30.4-4.5,60.6-2.9,90.9
			c11.7-27.3,23.7-54.3,35-81.7c23.4-56.6,45.2-116,53-177c6.8-53.9,4.1-111.3-16.2-162.3c-7.1-17.8-16.4-34.6-27.5-50
			C1723.2,365.7,1724.9,378.8,1726.4,392z"/>
		<path class="st3" d="M132.7,1234.6c-9.1-88.9,17.9-177.2,8.7-266.1c-3.6-22.2-9.3-44-16.4-65.3c-34.4,45.8-69.3,91.5-88.3,146
			c-14.2,40.5-22.9,83.9-15.2,126.8c6.6,36.9,20.5,71.3,42.8,101.7c30.1,41.1,70.7,73.3,114.7,99c-2.9-4.2-5.7-8.6-8.3-13
			C147.3,1324.1,137.3,1280,132.7,1234.6z"/>
		<path class="st4" d="M1274.3,1469.1c14.8,0,29.6-1,44-3.5c18.8-3.2,36.5-8,53.5-14.5c-36-3.4-71.7-9.4-107.5-14.4
			c-23.7-3-47.7-5.4-71.6-5.4c-10.1,0-20.2,0.4-30.3,1.4c-13.9,2.6-27.4,6.4-40.6,11.3c29.7,7.3,59.3,15,89.4,19.7
			C1231.8,1466.9,1253.1,1469,1274.3,1469.1z"/>
		<path class="st3" d="M187.5,650.8c7.1,31.7,12.5,63.9,12.5,96.5c-1.1,14.6-3.5,29-7.2,43.2c-7.4,20.7-17.5,40.3-29,59.1
			c-12.1,18.3-25.3,36.1-38.6,53.8c7.1,21.3,12.8,43.1,16.4,65.3c9.1,88.8-17.8,177.1-8.7,266.1c4.7,45.3,14.8,89.4,38.1,129
			c2.6,4.4,5.4,8.8,8.3,13c13.1,7.7,26.6,14.8,40.1,21.4c120.3,58.5,254.1,88.2,387.8,88.2c16.9,0,33.9-0.4,50.8-1.4
			c0.5,0,1,0,1.5,0c2.3,0,4.6-0.2,6.8-0.5c3.4-0.3,6.7-0.8,10-1.7c22.3-3.8,44.4-8.4,66.5-13.2c48.1-10.5,96.1-22.2,144.5-31.2
			c40.9-7.6,82.4-13.7,124.1-13.7c1.4,0,2.7,0,4.1,0c36.2,2.4,71.4,10.6,106.5,19.3c13.2-5,26.7-8.8,40.6-11.3
			c10.1-1,20.2-1.4,30.3-1.4c23.9,0,47.9,2.4,71.6,5.4c35.8,5,71.5,11,107.5,14.4c15.6-5.9,30.7-13.3,45.8-22.2
			c52.6-31,92.3-81.3,121.7-134c64.3-115.3,63.6-251.3,100.2-375.5c10.7-32.5,23.6-64.2,37.1-95.7c-1.5-30.3-0.7-60.5,2.9-90.9
			c12.5-83.9,37.7-165.3,46.3-249.9c3.1-30.2,3.6-60.7,0.5-90.9c-1.4-13.2-3-26.3-5.3-39.3c-24.9-34.4-59.4-61.5-100.5-75.1
			c-31.1-10.3-61.6-16-94.2-17.7c-28.8-1.5-57.7-1.5-86.6-2.2c-56.1-2.7-111.7-12.2-165.5-28.2c-52.9-17.4-103.5-40.9-150.7-70.2
			c-6.9-4.5-13.6-9.1-20.3-13.7c-41.3-28.5-81.5-58.8-125.2-83.8c-19.3-11-39.3-20.6-60.3-27.7c-25.3-8.5-50.6-15.7-77.3-17.4
			c-9.8-0.6-19.5-1-29.2-1c-14.5,0-28.9,0.9-43.3,3.2c-23.6,3.7-47.2,9.7-69.9,17.3C660.6,48.9,625,66.8,590,85.1
			c-35.6,18.7-70.9,38.1-107.8,54.3c-35.1,15.3-71.7,26.4-107.8,38.9c-39.6,13.7-79.1,29.8-114,53.3c-39.8,26.7-74.1,66-90.8,111.4
			c-19.4,52.7-22.5,108.8-14.8,164.2C161.5,555.9,175.6,603.1,187.5,650.8z M213.3,974.3c2.2-42.9,13.8-83.6,35.7-120.6
			c18.3-30.9,42.3-58,64.7-86c14.3-19.5,26.6-40.1,36.7-62.1c20.2-51.8,30.3-106.8,43-160.8c6.9-29.6,14.7-59,25.4-87.4
			c11.8-31.3,25.4-62.6,44.8-90.1c10.6-15.1,22.1-30,34.9-43.4c12.7-13.2,27-24.3,41.6-35.3c9.9-7.5,20.4-14,31.6-19.4
			c16.3-7.9,33.6-15.3,51.4-19.4c17.9-4.1,35.3-6,52.8-6c17.2,0,34.5,1.8,52.2,5.1c28.6,5.3,56,17.2,82.1,29.6
			c46.1,21.9,88.1,51.5,134.5,72.6c14.6,5.7,29.7,10.2,45.1,13.1c7.4,0.6,14.8,0.9,22.2,0.9c17.8,0,35.5-1.6,53.2-3.8
			c36.6-5.2,73.4-11.7,110.4-11.7c7.1,0,14.2,0.3,21.3,0.8c24.6,1.9,50.2,5.2,73.3,14.2c14,5.5,28.4,11.2,41.2,19.3
			c11.8,7.5,23.2,16.3,33.5,25.9c10.4,9.7,18.9,21.3,27.4,32.6c5.2,6.9,9.8,14.1,13.8,21.7c10.7,20.3,19.5,42.4,24.7,64.9
			c5.2,22.5,8.2,46.1,8.6,69.2c0.5,27.8-3.3,55.7-7.6,83.1c-7.2,46-20,91-27.2,137c-2.5,22.2-3.3,44.6-1.3,66.9
			c2,11.3,4.9,22.3,8.8,33.1c13,27,30.9,51.1,46,76.8c11,18.7,20.3,38.7,27,59.2c2.5,7.5,4.2,15.2,5.3,23c1.9,13.7,4.2,27.2,3.2,41
			c-1,13.2-2.6,26.8-6.1,39.6c-3.4,12.6-8.9,24.8-14.5,36.5c-3.1,6.7-6.9,13-11.2,19c-7.8,10.9-16,21.8-25.3,31.5
			c-5.3,5.5-11,10.7-17,15.4c-10.5,8.3-21.1,16.7-32.5,23.8c-18.1,11.2-38.1,19.8-58.2,26.5c-22.6,7.7-46.8,10.7-70.5,13.1
			c-12.9,1.3-25.8,1.8-38.7,1.8c-7.9,0-15.7-0.2-23.5-0.5c-40.1-1.7-79.9-7-120-8c-3.9-0.1-7.9-0.1-11.8-0.1
			c-50.7,0-100.9,7.9-151.2,13.3c-15.3,1.6-30.6,3-45.9,4c-3.2,0.5-6.5,0.7-9.9,0.8c-1.5,0-3.1,0-4.7,0c-15.3,0.8-30.7,1.2-46,1.2
			c-31.1,0-62.3-1.7-93.4-5.6c-8.7-1.1-17.5-2.3-26.3-3.5c-8.5-0.4-17.1-0.9-25.6-1.2c-36.1-1.4-72.3-5.5-107.9-11.9
			c-29.6-5.4-58.9-13.1-86.9-24.2c-33.1-13.1-65.3-28.1-94.1-49.3c-15.8-11.7-31.5-23.7-45.4-37.7c-13.5-13.7-25.4-29-36.7-44.5
			c-19.3-26.4-33.5-56.9-43.6-87.9c-4.1-12.7-7.1-25.7-9-38.9C214.9,1012.4,212.4,993.5,213.3,974.3z"/>
		<path class="st5" d="M1383.6,885.4c-2-22.3-1.2-44.7,1.3-66.9c7.2-46,20-91,27.2-137c4.2-27.4,8-55.3,7.6-83.1
			c-0.4-23.1-3.4-46.7-8.6-69.2c-5.2-22.5-14-44.6-24.7-64.9c-4.1-7.6-8.7-14.8-13.8-21.7c-8.5-11.4-17-22.9-27.4-32.6
			c-10.3-9.6-21.6-18.4-33.5-25.9c-12.8-8.1-27.2-13.8-41.2-19.3c-23.1-9.1-48.8-12.3-73.3-14.2c-7.1-0.6-14.2-0.8-21.3-0.8
			c-37,0-73.9,6.5-110.4,11.7c-17.7,2.2-35.4,3.8-53.2,3.8c-7.4,0-14.8-0.3-22.2-0.9c-15.4-2.9-30.5-7.4-45.1-13.1
			c-46.4-21.1-88.4-50.7-134.5-72.6c-26.1-12.4-53.5-24.3-82.1-29.6c-17.7-3.3-35-5.1-52.2-5.1c-17.4,0-34.9,1.9-52.8,6
			c-17.8,4.1-35.1,11.5-51.4,19.4c-11.1,5.4-21.7,12-31.6,19.4c-14.6,11-28.9,22.1-41.6,35.3c-12.8,13.4-24.2,28.3-34.9,43.4
			c-19.4,27.5-33,58.8-44.8,90.1c-10.7,28.4-18.5,57.9-25.4,87.4c-12.6,54-22.7,109-43,160.8c-10,22.1-22.3,42.6-36.7,62.1
			c-22.3,28-46.4,55.1-64.7,86c-21.9,37-33.5,77.8-35.7,120.6c-1,19.3,1.5,38.1,4.3,57.2c1.9,13.2,4.9,26.2,9,38.9
			c10.1,31,24.4,61.5,43.6,87.9c11.3,15.5,23.2,30.9,36.7,44.5c13.9,14,29.6,26,45.4,37.7c28.8,21.3,60.9,36.2,94.1,49.3
			c28,11.1,57.3,18.9,86.9,24.2c35.6,6.4,71.8,10.5,107.9,11.9c8.5,0.3,17.1,0.7,25.6,1.2c8.7,1.3,17.5,2.4,26.3,3.5
			c31.1,3.9,62.2,5.6,93.4,5.6c15.3,0,30.7-0.4,46-1.2c1.5,0,3.1,0,4.7,0c3.4,0,6.7-0.3,9.9-0.8c15.3-1,30.6-2.3,45.9-4
			c50.3-5.4,100.5-13.3,151.2-13.3c3.9,0,7.9,0,11.8,0.1c40.1,1,79.9,6.3,120,8c7.8,0.3,15.7,0.5,23.5,0.5c12.9,0,25.8-0.5,38.7-1.8
			c23.6-2.5,47.8-5.5,70.5-13.1c20.1-6.8,40.1-15.3,58.2-26.5c11.4-7,22-15.5,32.5-23.8c6-4.8,11.7-9.9,17-15.4
			c9.3-9.7,17.5-20.6,25.3-31.5c4.2-6,8-12.4,11.2-19c5.6-11.7,11.1-23.9,14.5-36.5c3.5-12.8,5.1-26.4,6.1-39.6
			c1-13.8-1.3-27.4-3.2-41c-1.2-7.8-2.9-15.5-5.3-23c-6.7-20.6-16.1-40.6-27-59.2c-15.1-25.8-33.1-49.9-46-76.8
			C1388.5,907.7,1385.6,896.6,1383.6,885.4z"/>
	</g>
	<g class="st6">
		<g class="st7">
			<path class="st8" d="M452.9,889.6c8.1,0,14.7-6.6,14.7-14.7v-314c0-8.1-6.6-14.7-14.7-14.7H208.2c-8.1,0-14.7,6.6-14.7,14.7v314
				c0,8.1,6.6,14.7,14.7,14.7H452.9z"/>
			<rect x="210.5" y="587.4" class="st9" width="240" height="286.3"/>
			<ellipse class="st10" cx="255.6" cy="567.7" rx="5" ry="5"/>
			<ellipse class="st11" cx="237.6" cy="567.7" rx="5" ry="5"/>
			<ellipse class="st12" cx="219.6" cy="567.7" rx="5" ry="5"/>
			<rect x="370.6" y="626.7" class="st13" width="58.8" height="58.8"/>
			
				<linearGradient id="SVGID_3_" gradientUnits="userSpaceOnUse" x1="1397.0125" y1="-1303.8782" x2="1455.8125" y2="-1303.8782" gradientTransform="matrix(-1 0 0 1 1756.4341 1960)">
				<stop  offset="0" style="stop-color:#5FE0DC"/>
				<stop  offset="1" style="stop-color:#03B4C4"/>
			</linearGradient>
			<rect x="300.6" y="626.7" class="st14" width="58.8" height="58.8"/>
			<rect x="231.7" y="626.7" class="st13" width="58.8" height="58.8"/>
			<rect x="370.6" y="701.2" class="st13" width="58.8" height="58.8"/>
			<rect x="300.6" y="701.2" class="st13" width="58.8" height="58.8"/>
			
				<linearGradient id="SVGID_4_" gradientUnits="userSpaceOnUse" x1="1465.9124" y1="-1229.3782" x2="1524.7124" y2="-1229.3782" gradientTransform="matrix(-1 0 0 1 1756.4341 1960)">
				<stop  offset="0" style="stop-color:#FFDB70"/>
				<stop  offset="1" style="stop-color:#F7AB00"/>
			</linearGradient>
			<rect x="231.7" y="701.2" class="st15" width="58.8" height="58.8"/>
			<rect x="370.6" y="775.6" class="st13" width="58.8" height="58.8"/>
			
				<linearGradient id="SVGID_5_" gradientUnits="userSpaceOnUse" x1="1397.0125" y1="-1154.9781" x2="1455.8125" y2="-1154.9781" gradientTransform="matrix(-1 0 0 1 1756.4341 1960)">
				<stop  offset="0" style="stop-color:#1266B2"/>
				<stop  offset="1" style="stop-color:#021A58"/>
			</linearGradient>
			<rect x="300.6" y="775.6" class="st16" width="58.8" height="58.8"/>
			<rect x="231.7" y="775.6" class="st13" width="58.8" height="58.8"/>
		</g>
		<g class="st7">
			<path class="st8" d="M1546,635.3c9.1,0,16.5-7.4,16.5-16.5V236.3c0-9.1-7.4-16.5-16.5-16.5h-440.5c-9.1,0-16.5,7.4-16.5,16.5
				v382.5c0,9.1,7.4,16.5,16.5,16.5H1546z"/>
			<rect x="1108.7" y="259" class="st9" width="434.1" height="351.2"/>
			<ellipse class="st10" cx="1185" cy="239.3" rx="6.3" ry="6.3"/>
			<ellipse class="st11" cx="1162.4" cy="239.3" rx="6.3" ry="6.3"/>
			<ellipse class="st12" cx="1139.7" cy="239.3" rx="6.3" ry="6.3"/>
			<g>
				<g>
					<rect x="1339.8" y="334.4" class="st13" width="185.9" height="5"/>
					<rect x="1339.8" y="350.1" class="st13" width="185.9" height="5"/>
					<rect x="1339.8" y="365.9" class="st13" width="185.9" height="5"/>
					<rect x="1339.8" y="381.6" class="st13" width="185.9" height="5"/>
					<rect x="1339.8" y="397.4" class="st13" width="185.9" height="5"/>
					<rect x="1339.8" y="413.1" class="st13" width="185.9" height="5"/>
					<rect x="1339.8" y="428.9" class="st13" width="185.9" height="5"/>
					<rect x="1133.3" y="334.4" class="st13" width="185.9" height="5"/>
					<rect x="1133.3" y="350.1" class="st13" width="185.9" height="5"/>
					<rect x="1133.3" y="365.9" class="st13" width="185.9" height="5"/>
					<rect x="1133.3" y="381.6" class="st13" width="185.9" height="5"/>
					<rect x="1133.3" y="397.4" class="st13" width="185.9" height="5"/>
					<rect x="1133.3" y="413.1" class="st13" width="185.9" height="5"/>
					<rect x="1133.3" y="428.9" class="st13" width="185.9" height="5"/>
				</g>
				<ellipse class="st13" cx="1510.2" cy="299.9" rx="15.5" ry="15.5"/>
				<ellipse class="st11" cx="1455.5" cy="299.9" rx="15.5" ry="15.5"/>
				<g>
					<g>
						<rect x="1415.2" y="465" class="st13" width="17.6" height="17.6"/>
						<rect x="1170" y="467.1" class="st13" width="236.6" height="5"/>
					</g>
					<rect x="1142.5" y="477.6" class="st13" width="264.1" height="5"/>
				</g>
				<g>
					<g>
						<rect x="1415.2" y="503.8" class="st13" width="17.6" height="17.6"/>
						<rect x="1170" y="505.9" class="st13" width="236.6" height="5"/>
					</g>
					<rect x="1142.5" y="516.4" class="st13" width="264.1" height="5"/>
				</g>
				<g>
					<g>
						<rect x="1415.2" y="542.6" class="st13" width="17.6" height="17.6"/>
						<rect x="1170" y="544.7" class="st13" width="236.6" height="5"/>
					</g>
					<rect x="1142.5" y="555.1" class="st13" width="264.1" height="5"/>
				</g>
				<rect x="1455.5" y="460.2" class="st10" width="54.7" height="104.9"/>
			</g>
		</g>
		<g class="st7">
			
				<linearGradient id="SVGID_6_" gradientUnits="userSpaceOnUse" x1="602.6125" y1="-1604.7782" x2="830.2125" y2="-1604.7782" gradientTransform="matrix(-1 0 0 1 1756.4341 1960)">
				<stop  offset="0" style="stop-color:#5FE0DC"/>
				<stop  offset="1" style="stop-color:#03B4C4"/>
			</linearGradient>
			<path class="st17" d="M1145.7,403.9c4.5,0,8.1-3.6,8.1-8.1v-81.2c0-4.5-3.6-8.1-8.1-8.1H934.3c-4.5,0-8.1,3.6-8.1,8.1v81.2
				c0,4.5,3.6,8.1,8.1,8.1H1145.7z"/>
			<g>
				<path class="st9" d="M1121.5,370.1l-9.6-11.1c4.3-4.7,4.5-12.1,0.2-17.1c-4.6-5.4-12.8-6-18.2-1.3c-5.4,4.6-6,12.8-1.3,18.2
					c4.3,5,11.7,5.9,17,2.3l9.6,11.1c0.6,0.7,1.5,0.8,2.2,0.2C1122.1,371.9,1122.1,370.9,1121.5,370.1z M1109.2,358.2
					c-4.3,3.7-10.7,3.3-14.4-1c-3.7-4.3-3.3-10.7,1-14.4s10.7-3.3,14.4,1C1113.9,348.1,1113.4,354.5,1109.2,358.2z"/>
				<path class="st9" d="M1068.4,368.6c1.5,0,2.7-1.2,2.7-2.7s-1.2-2.7-2.7-2.7s-2.7,1.2-2.7,2.7S1066.9,368.6,1068.4,368.6z"/>
				<path class="st9" d="M1053,368.6c1.5,0,2.7-1.2,2.7-2.7s-1.2-2.7-2.7-2.7s-2.7,1.2-2.7,2.7S1051.5,368.6,1053,368.6z"/>
				<path class="st9" d="M1037.7,368.6c1.5,0,2.7-1.2,2.7-2.7s-1.2-2.7-2.7-2.7s-2.7,1.2-2.7,2.7S1036.2,368.6,1037.7,368.6z"/>
				<path class="st9" d="M1022.3,368.6c1.5,0,2.7-1.2,2.7-2.7s-1.2-2.7-2.7-2.7s-2.7,1.2-2.7,2.7S1020.8,368.6,1022.3,368.6z"/>
				<path class="st9" d="M1006.9,368.6c1.5,0,2.7-1.2,2.7-2.7s-1.2-2.7-2.7-2.7s-2.7,1.2-2.7,2.7S1005.4,368.6,1006.9,368.6z"/>
				<path class="st9" d="M991.5,368.6c1.5,0,2.7-1.2,2.7-2.7s-1.2-2.7-2.7-2.7s-2.7,1.2-2.7,2.7S990,368.6,991.5,368.6z"/>
				<path class="st9" d="M976.2,368.6c1.5,0,2.7-1.2,2.7-2.7s-1.2-2.7-2.7-2.7s-2.7,1.2-2.7,2.7S974.7,368.6,976.2,368.6z"/>
				<path class="st9" d="M960.8,368.6c1.5,0,2.7-1.2,2.7-2.7s-1.2-2.7-2.7-2.7s-2.7,1.2-2.7,2.7S959.3,368.6,960.8,368.6z"/>
			</g>
		</g>
		<g class="st7">
			
				<linearGradient id="SVGID_7_" gradientUnits="userSpaceOnUse" x1="126.2125" y1="-1306.3782" x2="261.6125" y2="-1306.3782" gradientTransform="matrix(-1 0 0 1 1756.4341 1960)">
				<stop  offset="0" style="stop-color:#FFDB70"/>
				<stop  offset="1" style="stop-color:#F7AB00"/>
			</linearGradient>
			<circle class="st18" cx="1562.5" cy="653.6" r="67.7"/>
			<g>
				<path class="st9" d="M1600.7,643.5c-0.9-3.5-2.3-6.8-4.1-9.9l5.7-8.4c1.1-1.6,0.9-3.7-0.5-5.1l-3-3l-3-3
					c-1.3-1.4-3.5-1.6-5.1-0.5l-8.4,5.7c-3-1.8-6.4-3.2-9.9-4.1l-1.9-10c-0.4-1.9-2.1-3.3-4-3.3h-4.2h-4.2c-2,0-3.6,1.4-4,3.3
					l-1.9,10c-3.5,0.9-6.8,2.3-9.9,4.1l-8.4-5.7c-1.6-1.1-3.7-0.9-5.1,0.5l-3,3l-3,3c-1.4,1.3-1.6,3.5-0.5,5.1l5.7,8.4
					c-1.8,3-3.2,6.4-4.1,9.9l-10,1.9c-1.9,0.4-3.3,2.1-3.3,4v4.2v4.2c0,2,1.4,3.6,3.3,4l10,1.9c0.9,3.5,2.3,6.8,4.1,9.9l-5.7,8.4
					c-1.1,1.6-0.9,3.7,0.5,5.1l3,3l3,3c1.3,1.4,3.5,1.6,5.1,0.5l8.4-5.7c3,1.8,6.4,3.2,9.9,4.1l1.9,10c0.4,1.9,2.1,3.3,4,3.3h4.2
					h4.2c2,0,3.6-1.4,4-3.3l1.9-10c3.5-0.9,6.8-2.3,9.9-4.1l8.4,5.7c1.6,1.1,3.7,0.9,5.1-0.5l3-3l3-3c1.4-1.3,1.6-3.5,0.5-5.1
					l-5.7-8.4c1.8-3,3.2-6.4,4.1-9.9l10-1.9c1.9-0.4,3.3-2.1,3.3-4v-4.2v-4.2c0-2-1.4-3.6-3.3-4L1600.7,643.5z M1588,653.6
					c0,14.1-11.4,25.5-25.5,25.5c-14.1,0-25.5-11.4-25.5-25.5s11.4-25.5,25.5-25.5C1576.5,628.1,1588,639.5,1588,653.6z"/>
				<path class="st9" d="M1562.5,673.9c11.2,0,20.3-9.1,20.3-20.3s-9.1-20.3-20.3-20.3c-11.2,0-20.3,9.1-20.3,20.3
					S1551.3,673.9,1562.5,673.9z M1562.5,668.7c-8.3,0-15.1-6.8-15.1-15.1s6.8-15.1,15.1-15.1c8.3,0,15.1,6.8,15.1,15.1
					S1570.8,668.7,1562.5,668.7z"/>
			</g>
		</g>
		<g class="st7">
			<path class="st8" d="M378.1,494.6H749c7.1,0,12.9-5.8,12.9-12.9V253.4c0-7.1-5.8-12.9-12.9-12.9H378.1c-7.1,0-12.9,5.8-12.9,12.9
				v228.2c0,7.1,5.8,12.9,12.9,12.9V494.6z"/>
			<rect x="382" y="266.1" class="st9" width="363.1" height="213.3"/>
			<ellipse class="st10" cx="426.2" cy="253" rx="5" ry="5"/>
			<ellipse class="st11" cx="408.2" cy="253" rx="5" ry="5"/>
			<ellipse class="st12" cx="390.2" cy="253" rx="5" ry="5"/>
			<rect x="620.1" y="302.7" class="st12" width="101" height="4.3"/>
			<rect x="563.6" y="317.9" class="st13" width="129.5" height="4.3"/>
			<rect x="568.7" y="328.9" class="st13" width="124.4" height="4.3"/>
			<rect x="549.6" y="339.9" class="st13" width="143.5" height="4.3"/>
			<rect x="572.1" y="365.3" class="st11" width="101" height="4.3"/>
			<rect x="528.7" y="377.1" class="st13" width="126.4" height="4.3"/>
			<rect x="521.5" y="387.1" class="st13" width="133.6" height="4.3"/>
			<rect x="530.2" y="397.1" class="st13" width="124.9" height="4.3"/>
			<rect x="513.5" y="407.1" class="st13" width="141.6" height="4.3"/>
			<rect x="532.7" y="424.1" class="st10" width="101" height="4.3"/>
			<rect x="456.3" y="433.5" class="st13" width="154.4" height="4.3"/>
			<rect x="429.8" y="442.8" class="st13" width="180.9" height="4.3"/>
		</g>
		<g class="st7">
			
				<linearGradient id="SVGID_8_" gradientUnits="userSpaceOnUse" x1="960.2698" y1="-1752.8782" x2="1102.7697" y2="-1752.8782" gradientTransform="matrix(-1 0 0 1 1756.4341 1960)">
				<stop  offset="0" style="stop-color:#1266B2"/>
				<stop  offset="1" style="stop-color:#021A58"/>
			</linearGradient>
			<path class="st19" d="M821.9,292c6.2,0,11.2-5,11.2-11.2V133.4c0-6.2-5-11.2-11.2-11.2H701.8c-6.2,0-11.2,5-11.2,11.2v147.4
				c0,6.2,5,11.2,11.2,11.2H821.9z"/>
			<circle class="st9" cx="761.9" cy="177.4" r="29.8"/>
			<rect x="724.8" y="218.1" class="st9" width="74.3" height="8.7"/>
			<rect x="708.8" y="240.5" class="st9" width="106.2" height="4.3"/>
			<rect x="708.8" y="250.5" class="st9" width="106.2" height="4.3"/>
			<rect x="708.8" y="260.5" class="st9" width="106.2" height="4.3"/>
		</g>
		<g class="st7">
			
				<linearGradient id="SVGID_9_" gradientUnits="userSpaceOnUse" x1="951.5125" y1="-1479.5781" x2="1057.7124" y2="-1479.5781" gradientTransform="matrix(-1 0 0 1 1756.4341 1960)">
				<stop  offset="0" style="stop-color:#5FE0DC"/>
				<stop  offset="1" style="stop-color:#03B4C4"/>
			</linearGradient>
			<circle class="st20" cx="751.8" cy="480.4" r="53.1"/>
			<text transform="matrix(-1 0 0 1 794.3023 495.3158)" class="st9 st21 st22 st23">&lt;/&gt;</text>
		</g>
		<g class="st7">
			
				<linearGradient id="SVGID_10_" gradientUnits="userSpaceOnUse" x1="1272.0579" y1="-1411.4281" x2="1442.6578" y2="-1411.4281" gradientTransform="matrix(-1 0 0 1 1756.4341 1960)">
				<stop  offset="0" style="stop-color:#1266B2"/>
				<stop  offset="1" style="stop-color:#021A58"/>
			</linearGradient>
			<path class="st24" d="M520,575.3c4.7,0,8.6-3.8,8.6-8.6v-36.3c0-4.7-3.8-8.6-8.6-8.6H366.6c-4.7,0-8.6,3.8-8.6,8.6v36.3
				c0,4.7,3.8,8.6,8.6,8.6H520z"/>
			<g>
				<text transform="matrix(-1 0 0 1 490.1617 558.6594)" class="st9 st21 st25 st26">www</text>
			</g>
		</g>
		<path class="st27" d="M585.2,551.8c0-1.1-0.9-2-2-2s-2,0.9-2,2v12c0,1.1,0.9,2,2,2s2-0.9,2-2V551.8z"/>
		<path class="st27" d="M581.2,503.8v12c0,1.1,0.9,2,2,2s2-0.9,2-2v-12c0-1.1-0.9-2-2-2S581.2,502.7,581.2,503.8z"/>
		<path class="st27" d="M585.2,527.8c0-1.1-0.9-2-2-2s-2,0.9-2,2v12c0,1.1,0.9,2,2,2s2-0.9,2-2V527.8z"/>
		<path class="st27" d="M580,618.6h-12c-1.1,0-2,0.9-2,2s0.9,2,2,2h12c1.1,0,2-0.9,2-2C582,619.5,581.1,618.6,580,618.6z"/>
		<path class="st27" d="M585.2,575.8c0-1.1-0.9-2-2-2s-2,0.9-2,2v12c0,1.1,0.9,2,2,2s2-0.9,2-2V575.8z"/>
		<path class="st27" d="M585.2,599.8c0-1.1-0.9-2-2-2s-2,0.9-2,2v12c0,1.1,0.9,2,2,2s2-0.9,2-2V599.8z"/>
		<path class="st27" d="M532,622.6c1.1,0,2-0.9,2-2s-0.9-2-2-2h-12c-1.1,0-2,0.9-2,2s0.9,2,2,2H532z"/>
		<path class="st27" d="M508,622.6c1.1,0,2-0.9,2-2s-0.9-2-2-2h-12c-1.1,0-2,0.9-2,2s0.9,2,2,2H508z"/>
		<path class="st27" d="M556,622.6c1.1,0,2-0.9,2-2s-0.9-2-2-2h-12c-1.1,0-2,0.9-2,2s0.9,2,2,2H556z"/>
		<path class="st27" d="M925.7,549.2c1.1,0,2-0.9,2-2s-0.9-2-2-2h-12c-1.1,0-2,0.9-2,2s0.9,2,2,2H925.7z"/>
		<path class="st27" d="M866.1,392.8v-12c0-1.1-0.9-2-2-2s-2,0.9-2,2v12c0,1.1,0.9,2,2,2S866.1,393.9,866.1,392.8z"/>
		<path class="st27" d="M949.7,549.2c1.1,0,2-0.9,2-2s-0.9-2-2-2h-12c-1.1,0-2,0.9-2,2s0.9,2,2,2H949.7z"/>
		<path class="st27" d="M866.1,404.8c0-1.1-0.9-2-2-2s-2,0.9-2,2v12c0,1.1,0.9,2,2,2s2-0.9,2-2V404.8z"/>
		<path class="st27" d="M901.7,549.2c1.1,0,2-0.9,2-2s-0.9-2-2-2h-12c-1.1,0-2,0.9-2,2s0.9,2,2,2H901.7z"/>
		<path class="st27" d="M1021.7,549.2c1.1,0,2-0.9,2-2s-0.9-2-2-2h-12c-1.1,0-2,0.9-2,2s0.9,2,2,2H1021.7z"/>
		<path class="st27" d="M973.7,549.2c1.1,0,2-0.9,2-2s-0.9-2-2-2h-12c-1.1,0-2,0.9-2,2s0.9,2,2,2H973.7z"/>
		<path class="st27" d="M1069.7,549.2c1.1,0,2-0.9,2-2s-0.9-2-2-2h-12c-1.1,0-2,0.9-2,2s0.9,2,2,2H1069.7z"/>
		<path class="st27" d="M997.7,549.2c1.1,0,2-0.9,2-2s-0.9-2-2-2h-12c-1.1,0-2,0.9-2,2s0.9,2,2,2H997.7z"/>
		<path class="st27" d="M1045.7,549.2c1.1,0,2-0.9,2-2s-0.9-2-2-2h-12c-1.1,0-2,0.9-2,2s0.9,2,2,2H1045.7z"/>
		<path class="st27" d="M860.1,374.8c1.1,0,2-0.9,2-2s-0.9-2-2-2h-12c-1.1,0-2,0.9-2,2s0.9,2,2,2H860.1z"/>
		<path class="st27" d="M836.1,374.8c1.1,0,2-0.9,2-2s-0.9-2-2-2h-12c-1.1,0-2,0.9-2,2s0.9,2,2,2H836.1z"/>
		<path class="st27" d="M788.1,374.8c1.1,0,2-0.9,2-2s-0.9-2-2-2h-12c-1.1,0-2,0.9-2,2s0.9,2,2,2H788.1z"/>
		<path class="st27" d="M812.1,374.8c1.1,0,2-0.9,2-2s-0.9-2-2-2h-12c-1.1,0-2,0.9-2,2s0.9,2,2,2H812.1z"/>
		<path class="st27" d="M877.7,545.2h-12c-1.1,0-2,0.9-2,2s0.9,2,2,2h12c1.1,0,2-0.9,2-2S878.8,545.2,877.7,545.2z"/>
		<path class="st27" d="M866.1,500.8c0-1.1-0.9-2-2-2s-2,0.9-2,2v12c0,1.1,0.9,2,2,2s2-0.9,2-2V500.8z"/>
		<path class="st27" d="M866.1,476.8c0-1.1-0.9-2-2-2s-2,0.9-2,2v12c0,1.1,0.9,2,2,2s2-0.9,2-2V476.8z"/>
		<path class="st27" d="M866.1,452.8c0-1.1-0.9-2-2-2s-2,0.9-2,2v12c0,1.1,0.9,2,2,2s2-0.9,2-2V452.8z"/>
		<path class="st27" d="M866.1,428.8c0-1.1-0.9-2-2-2s-2,0.9-2,2v12c0,1.1,0.9,2,2,2s2-0.9,2-2V428.8z"/>
		<path class="st27" d="M866.1,524.8c0-1.1-0.9-2-2-2s-2,0.9-2,2v12c0,1.1,0.9,2,2,2s2-0.9,2-2V524.8z"/>
		<path class="st27" d="M1216.8,179.4c1.1,0,2-0.9,2-2s-0.9-2-2-2h-12c-1.1,0-2,0.9-2,2s0.9,2,2,2H1216.8z"/>
		<path class="st27" d="M1168.8,179.4c1.1,0,2-0.9,2-2s-0.9-2-2-2h-12c-1.1,0-2,0.9-2,2s0.9,2,2,2H1168.8z"/>
		<path class="st27" d="M1096.8,179.4c1.1,0,2-0.9,2-2s-0.9-2-2-2h-12c-1.1,0-2,0.9-2,2s0.9,2,2,2H1096.8z"/>
		<path class="st27" d="M1144.8,179.4c1.1,0,2-0.9,2-2s-0.9-2-2-2h-12c-1.1,0-2,0.9-2,2s0.9,2,2,2H1144.8z"/>
		<path class="st27" d="M1120.8,179.4c1.1,0,2-0.9,2-2s-0.9-2-2-2h-12c-1.1,0-2,0.9-2,2s0.9,2,2,2H1120.8z"/>
		<path class="st27" d="M1285.1,195.1c0-1.1-0.9-2-2-2s-2,0.9-2,2v12c0,1.1,0.9,2,2,2s2-0.9,2-2V195.1z"/>
		<path class="st27" d="M1285.1,183.1v-5.8c0-1.1-0.9-2-2-2h-6.3c-1.1,0-2,0.9-2,2s0.9,2,2,2h4.3v3.8c0,1.1,0.9,2,2,2
			S1285.1,184.2,1285.1,183.1z"/>
		<path class="st27" d="M1240.8,179.4c1.1,0,2-0.9,2-2s-0.9-2-2-2h-12c-1.1,0-2,0.9-2,2s0.9,2,2,2H1240.8z"/>
		<path class="st27" d="M1264.8,179.4c1.1,0,2-0.9,2-2s-0.9-2-2-2h-12c-1.1,0-2,0.9-2,2s0.9,2,2,2H1264.8z"/>
		<path class="st27" d="M1192.8,179.4c1.1,0,2-0.9,2-2s-0.9-2-2-2h-12c-1.1,0-2,0.9-2,2s0.9,2,2,2H1192.8z"/>
		<path class="st27" d="M928.8,179.4c1.1,0,2-0.9,2-2s-0.9-2-2-2h-12c-1.1,0-2,0.9-2,2s0.9,2,2,2H928.8z"/>
		<path class="st27" d="M904.8,179.4c1.1,0,2-0.9,2-2s-0.9-2-2-2h-12c-1.1,0-2,0.9-2,2s0.9,2,2,2H904.8z"/>
		<path class="st27" d="M952.8,179.4c1.1,0,2-0.9,2-2s-0.9-2-2-2h-12c-1.1,0-2,0.9-2,2s0.9,2,2,2H952.8z"/>
		<path class="st27" d="M880.8,179.4c1.1,0,2-0.9,2-2s-0.9-2-2-2h-12c-1.1,0-2,0.9-2,2s0.9,2,2,2H880.8z"/>
		<path class="st27" d="M856.8,179.4c1.1,0,2-0.9,2-2s-0.9-2-2-2h-12c-1.1,0-2,0.9-2,2s0.9,2,2,2H856.8z"/>
		<path class="st27" d="M976.8,179.4c1.1,0,2-0.9,2-2s-0.9-2-2-2h-12c-1.1,0-2,0.9-2,2s0.9,2,2,2H976.8z"/>
		<path class="st27" d="M1072.8,179.4c1.1,0,2-0.9,2-2s-0.9-2-2-2h-12c-1.1,0-2,0.9-2,2s0.9,2,2,2H1072.8z"/>
		<path class="st27" d="M1024.8,179.4c1.1,0,2-0.9,2-2s-0.9-2-2-2h-12c-1.1,0-2,0.9-2,2s0.9,2,2,2H1024.8z"/>
		<path class="st27" d="M1048.8,179.4c1.1,0,2-0.9,2-2s-0.9-2-2-2h-12c-1.1,0-2,0.9-2,2s0.9,2,2,2H1048.8z"/>
		<path class="st27" d="M1000.8,179.4c1.1,0,2-0.9,2-2s-0.9-2-2-2h-12c-1.1,0-2,0.9-2,2s0.9,2,2,2H1000.8z"/>
		<path class="st27" d="M960.4,239.3c0,1.1,0.9,2,2,2h12c1.1,0,2-0.9,2-2s-0.9-2-2-2h-12C961.3,237.3,960.4,238.2,960.4,239.3z"/>
		<path class="st27" d="M959.6,274.5v12c0,1.1,0.9,2,2,2s2-0.9,2-2v-12c0-1.1-0.9-2-2-2C960.5,272.5,959.6,273.4,959.6,274.5z"/>
		<path class="st27" d="M998.4,237.3h-12c-1.1,0-2,0.9-2,2s0.9,2,2,2h12c1.1,0,2-0.9,2-2S999.5,237.3,998.4,237.3z"/>
		<path class="st27" d="M1011.5,226.5c0-1.1-0.9-2-2-2s-2,0.9-2,2v12c0,1.1,0.9,2,2,2s2-0.9,2-2V226.5z"/>
		<path class="st27" d="M986.3,199.7c0,1.1,0.9,2,2,2h12c1.1,0,2-0.9,2-2s-0.9-2-2-2h-12C987.2,197.7,986.3,198.6,986.3,199.7z"/>
		<path class="st27" d="M1011.5,214.5v-12c0-1.1-0.9-2-2-2s-2,0.9-2,2v12c0,1.1,0.9,2,2,2C1010.7,216.5,1011.5,215.6,1011.5,214.5z"
			/>
		<path class="st27" d="M959.6,262.5c0,1.1,0.9,2,2,2s2-0.9,2-2v-12c0-1.1-0.9-2-2-2s-2,0.9-2,2V262.5z"/>
		<path class="st27" d="M962.3,199.7c0,1.1,0.9,2,2,2h12c1.1,0,2-0.9,2-2s-0.9-2-2-2h-12C963.2,197.7,962.3,198.6,962.3,199.7z"/>
		<path class="st27" d="M856.3,201.7c1.1,0,2-0.9,2-2s-0.9-2-2-2h-12c-1.1,0-2,0.9-2,2s0.9,2,2,2H856.3z"/>
		<path class="st27" d="M904.3,201.7c1.1,0,2-0.9,2-2s-0.9-2-2-2h-12c-1.1,0-2,0.9-2,2s0.9,2,2,2H904.3z"/>
		<path class="st27" d="M880.3,201.7c1.1,0,2-0.9,2-2s-0.9-2-2-2h-12c-1.1,0-2,0.9-2,2s0.9,2,2,2H880.3z"/>
		<path class="st27" d="M928.3,201.7c1.1,0,2-0.9,2-2s-0.9-2-2-2h-12c-1.1,0-2,0.9-2,2s0.9,2,2,2H928.3z"/>
		<path class="st27" d="M952.3,201.7c1.1,0,2-0.9,2-2s-0.9-2-2-2h-12c-1.1,0-2,0.9-2,2s0.9,2,2,2H952.3z"/>
		<path class="st27" d="M731.7,622.6c1.1,0,2-0.9,2-2s-0.9-2-2-2h-12c-1.1,0-2,0.9-2,2s0.9,2,2,2H731.7z"/>
		<path class="st27" d="M753.8,616.7c0-1.1-0.9-2-2-2s-2,0.9-2,2v1.9h-6.1c-1.1,0-2,0.9-2,2s0.9,2,2,2h8.1c1.1,0,2-0.9,2-2V616.7z"
			/>
		<path class="st27" d="M753.8,568.7c0-1.1-0.9-2-2-2s-2,0.9-2,2v12c0,1.1,0.9,2,2,2s2-0.9,2-2V568.7z"/>
		<path class="st27" d="M753.8,592.7c0-1.1-0.9-2-2-2s-2,0.9-2,2v12c0,1.1,0.9,2,2,2s2-0.9,2-2V592.7z"/>
		<path class="st27" d="M683.7,622.6c1.1,0,2-0.9,2-2s-0.9-2-2-2h-12c-1.1,0-2,0.9-2,2s0.9,2,2,2H683.7z"/>
		<path class="st27" d="M753.8,556.7v-12c0-1.1-0.9-2-2-2s-2,0.9-2,2v12c0,1.1,0.9,2,2,2S753.8,557.8,753.8,556.7z"/>
		<path class="st27" d="M707.7,622.6c1.1,0,2-0.9,2-2s-0.9-2-2-2h-12c-1.1,0-2,0.9-2,2s0.9,2,2,2H707.7z"/>
		<path class="st27" d="M622.1,600.2c0-1.1-0.9-2-2-2s-2,0.9-2,2v12c0,1.1,0.9,2,2,2s2-0.9,2-2V600.2z"/>
		<path class="st27" d="M622.1,576.2c0-1.1-0.9-2-2-2s-2,0.9-2,2v12c0,1.1,0.9,2,2,2s2-0.9,2-2V576.2z"/>
		<path class="st27" d="M621.7,620.6c0,1.1,0.9,2,2,2h12c1.1,0,2-0.9,2-2s-0.9-2-2-2h-12C622.6,618.6,621.7,619.5,621.7,620.6z"/>
		<path class="st27" d="M659.7,622.6c1.1,0,2-0.9,2-2s-0.9-2-2-2h-12c-1.1,0-2,0.9-2,2s0.9,2,2,2H659.7z"/>
		<path class="st27" d="M622.1,528.2c0-1.1-0.9-2-2-2s-2,0.9-2,2v12c0,1.1,0.9,2,2,2s2-0.9,2-2V528.2z"/>
		<path class="st27" d="M622.1,516.2v-12c0-1.1-0.9-2-2-2s-2,0.9-2,2v12c0,1.1,0.9,2,2,2S622.1,517.3,622.1,516.2z"/>
		<path class="st27" d="M622.1,552.2c0-1.1-0.9-2-2-2s-2,0.9-2,2v12c0,1.1,0.9,2,2,2s2-0.9,2-2V552.2z"/>
		<path class="st27" d="M1091.5,787.8c1.1,0,2-0.9,2-2s-0.9-2-2-2h-12c-1.1,0-2,0.9-2,2s0.9,2,2,2H1091.5z"/>
		<path class="st27" d="M1115.5,787.8c1.1,0,2-0.9,2-2s-0.9-2-2-2h-12c-1.1,0-2,0.9-2,2s0.9,2,2,2H1115.5z"/>
		<path class="st27" d="M1163.5,787.8c1.1,0,2-0.9,2-2s-0.9-2-2-2h-12c-1.1,0-2,0.9-2,2s0.9,2,2,2H1163.5z"/>
		<path class="st27" d="M1139.5,787.8c1.1,0,2-0.9,2-2s-0.9-2-2-2h-12c-1.1,0-2,0.9-2,2s0.9,2,2,2H1139.5z"/>
		<path class="st27" d="M1067.5,787.8c1.1,0,2-0.9,2-2s-0.9-2-2-2h-12c-1.1,0-2,0.9-2,2s0.9,2,2,2H1067.5z"/>
		<path class="st27" d="M971.5,787.8c1.1,0,2-0.9,2-2s-0.9-2-2-2h-12c-1.1,0-2,0.9-2,2s0.9,2,2,2H971.5z"/>
		<path class="st27" d="M1187.5,787.8c1.1,0,2-0.9,2-2s-0.9-2-2-2h-12c-1.1,0-2,0.9-2,2s0.9,2,2,2H1187.5z"/>
		<path class="st27" d="M947.5,787.8c1.1,0,2-0.9,2-2s-0.9-2-2-2h-12c-1.1,0-2,0.9-2,2s0.9,2,2,2H947.5z"/>
		<path class="st27" d="M995.5,787.8c1.1,0,2-0.9,2-2s-0.9-2-2-2h-12c-1.1,0-2,0.9-2,2s0.9,2,2,2H995.5z"/>
		<path class="st27" d="M1043.5,787.8c1.1,0,2-0.9,2-2s-0.9-2-2-2h-12c-1.1,0-2,0.9-2,2s0.9,2,2,2H1043.5z"/>
		<path class="st27" d="M923.5,787.8c1.1,0,2-0.9,2-2s-0.9-2-2-2h-12c-1.1,0-2,0.9-2,2s0.9,2,2,2H923.5z"/>
		<path class="st27" d="M1019.5,787.8c1.1,0,2-0.9,2-2s-0.9-2-2-2h-12c-1.1,0-2,0.9-2,2s0.9,2,2,2H1019.5z"/>
		<path class="st27" d="M1211.5,787.8c1.1,0,2-0.9,2-2s-0.9-2-2-2h-12c-1.1,0-2,0.9-2,2s0.9,2,2,2H1211.5z"/>
		<path class="st27" d="M1321.2,725.6c0-1.1-0.9-2-2-2s-2,0.9-2,2v12c0,1.1,0.9,2,2,2s2-0.9,2-2V725.6z"/>
		<path class="st27" d="M1321.2,773.6c0-1.1-0.9-2-2-2s-2,0.9-2,2v12c0,1.1,0.9,2,2,2s2-0.9,2-2V773.6z"/>
		<path class="st27" d="M1321.2,677.6c0-1.1-0.9-2-2-2s-2,0.9-2,2v12c0,1.1,0.9,2,2,2s2-0.9,2-2V677.6z"/>
		<path class="st27" d="M1321.2,665.6v-12c0-1.1-0.9-2-2-2s-2,0.9-2,2v12c0,1.1,0.9,2,2,2S1321.2,666.7,1321.2,665.6z"/>
		<path class="st27" d="M1321.2,701.6c0-1.1-0.9-2-2-2s-2,0.9-2,2v12c0,1.1,0.9,2,2,2s2-0.9,2-2V701.6z"/>
		<path class="st27" d="M1235.5,787.8c1.1,0,2-0.9,2-2s-0.9-2-2-2h-12c-1.1,0-2,0.9-2,2s0.9,2,2,2H1235.5z"/>
		<path class="st27" d="M1259.5,787.8c1.1,0,2-0.9,2-2s-0.9-2-2-2h-12c-1.1,0-2,0.9-2,2s0.9,2,2,2H1259.5z"/>
		<path class="st27" d="M1307.5,787.8c1.1,0,2-0.9,2-2s-0.9-2-2-2h-12c-1.1,0-2,0.9-2,2s0.9,2,2,2H1307.5z"/>
		<path class="st27" d="M1283.5,787.8c1.1,0,2-0.9,2-2s-0.9-2-2-2h-12c-1.1,0-2,0.9-2,2s0.9,2,2,2H1283.5z"/>
		<path class="st27" d="M1321.2,749.6c0-1.1-0.9-2-2-2s-2,0.9-2,2v12c0,1.1,0.9,2,2,2s2-0.9,2-2V749.6z"/>
		<path class="st27" d="M656.6,670.7c1.1,0,2-0.9,2-2s-0.9-2-2-2h-12c-1.1,0-2,0.9-2,2s0.9,2,2,2H656.6z"/>
		<path class="st27" d="M667.1,768.2c0-1.1-0.9-2-2-2s-2,0.9-2,2v12c0,1.1,0.9,2,2,2s2-0.9,2-2V768.2z"/>
		<path class="st27" d="M632.6,670.7c1.1,0,2-0.9,2-2s-0.9-2-2-2h-12c-1.1,0-2,0.9-2,2s0.9,2,2,2H632.6z"/>
		<path class="st27" d="M899.5,787.8c1.1,0,2-0.9,2-2s-0.9-2-2-2h-12c-1.1,0-2,0.9-2,2s0.9,2,2,2H899.5z"/>
		<path class="st27" d="M667.1,684.2v-12c0-1.1-0.9-2-2-2s-2,0.9-2,2v12c0,1.1,0.9,2,2,2S667.1,685.3,667.1,684.2z"/>
		<path class="st27" d="M667.1,744.2c0-1.1-0.9-2-2-2s-2,0.9-2,2v12c0,1.1,0.9,2,2,2s2-0.9,2-2V744.2z"/>
		<path class="st27" d="M536.6,670.7c1.1,0,2-0.9,2-2s-0.9-2-2-2h-12c-1.1,0-2,0.9-2,2s0.9,2,2,2H536.6z"/>
		<path class="st27" d="M512.6,670.7c1.1,0,2-0.9,2-2s-0.9-2-2-2h-12c-1.1,0-2,0.9-2,2s0.9,2,2,2H512.6z"/>
		<path class="st27" d="M560.6,670.7c1.1,0,2-0.9,2-2s-0.9-2-2-2h-12c-1.1,0-2,0.9-2,2s0.9,2,2,2H560.6z"/>
		<path class="st27" d="M584.6,670.7c1.1,0,2-0.9,2-2s-0.9-2-2-2h-12c-1.1,0-2,0.9-2,2s0.9,2,2,2H584.6z"/>
		<path class="st27" d="M608.6,670.7c1.1,0,2-0.9,2-2s-0.9-2-2-2h-12c-1.1,0-2,0.9-2,2s0.9,2,2,2H608.6z"/>
		<path class="st27" d="M667.1,720.2c0-1.1-0.9-2-2-2s-2,0.9-2,2v12c0,1.1,0.9,2,2,2s2-0.9,2-2V720.2z"/>
		<path class="st27" d="M803.5,787.8c1.1,0,2-0.9,2-2s-0.9-2-2-2h-12c-1.1,0-2,0.9-2,2s0.9,2,2,2H803.5z"/>
		<path class="st27" d="M827.5,787.8c1.1,0,2-0.9,2-2s-0.9-2-2-2h-12c-1.1,0-2,0.9-2,2s0.9,2,2,2H827.5z"/>
		<path class="st27" d="M851.5,787.8c1.1,0,2-0.9,2-2s-0.9-2-2-2h-12c-1.1,0-2,0.9-2,2s0.9,2,2,2H851.5z"/>
		<path class="st27" d="M875.5,787.8c1.1,0,2-0.9,2-2s-0.9-2-2-2h-12c-1.1,0-2,0.9-2,2s0.9,2,2,2H875.5z"/>
		<path class="st27" d="M667.1,696.2c0-1.1-0.9-2-2-2s-2,0.9-2,2v12c0,1.1,0.9,2,2,2s2-0.9,2-2V696.2z"/>
		<path class="st27" d="M779.5,787.8c1.1,0,2-0.9,2-2s-0.9-2-2-2h-12c-1.1,0-2,0.9-2,2s0.9,2,2,2H779.5z"/>
		<path class="st27" d="M755.5,787.8c1.1,0,2-0.9,2-2s-0.9-2-2-2h-12c-1.1,0-2,0.9-2,2s0.9,2,2,2H755.5z"/>
		<path class="st27" d="M707.5,787.8c1.1,0,2-0.9,2-2s-0.9-2-2-2h-12c-1.1,0-2,0.9-2,2s0.9,2,2,2H707.5z"/>
		<path class="st27" d="M683.5,787.8c1.1,0,2-0.9,2-2s-0.9-2-2-2h-12c-1.1,0-2,0.9-2,2s0.9,2,2,2H683.5z"/>
		<path class="st27" d="M731.5,787.8c1.1,0,2-0.9,2-2s-0.9-2-2-2h-12c-1.1,0-2,0.9-2,2s0.9,2,2,2H731.5z"/>
	</g>
	<g>
		
			<linearGradient id="SVGID_11_" gradientUnits="userSpaceOnUse" x1="1029.5841" y1="-415.2657" x2="1033.6786" y2="-755.2318" gradientTransform="matrix(-1 0 0 1 1756.4341 1960)">
			<stop  offset="0" style="stop-color:#40B5BC"/>
			<stop  offset="1" style="stop-color:#18056E"/>
		</linearGradient>
		<path class="st28" d="M699.7,1069.6v466.2c0,47.2-38.3,85.5-85.5,85.5h-11.8c-3.8,0-6.9,3.1-6.9,6.9v44.2c0,3.8,3.1,6.9,6.9,6.9
			h97.4h56.6h97.4c3.8,0,6.9-3.1,6.9-6.9v-44.2c0-3.8-3.1-6.9-6.9-6.9H842c-47.2,0-85.5-38.3-85.5-85.5v-466.2H699.7z"/>
		
			<linearGradient id="SVGID_12_" gradientUnits="userSpaceOnUse" x1="774.4016" y1="-1238.3462" x2="695.2829" y2="-1298.9597" gradientTransform="matrix(-1 0 0 1 1756.4341 1960)">
			<stop  offset="0" style="stop-color:#47312C"/>
			<stop  offset="1" style="stop-color:#000000"/>
		</linearGradient>
		<path class="st29" d="M1025.6,578.5c3.5,10.1-3.6,18.5-9.6,25.8c-5.9,7.2-12,14.7-14.1,24.1c-1,4.2-0.8,8.4-0.1,12.6
			c-1.2,5.8-2.6,11.6-5.8,16.7c-3.7,6-8.7,11.1-11.4,17.8c-2.4,6.2-3.3,13.1-2.4,19.7c1.5,11.1,9.2,22.8,21.3,23.8
			c5.5,0.5,10.5-1.7,15.7-2.9c4.2,1.5,8.4,2.8,12.4,4.7c7.3,3.6,9.6,9.2,12.8,16.2c5.9,12.9,18.6,20.6,32.9,19.6
			c14.3-1,26.5-11,32.8-23.5c15.7-31.4-3-67-18.4-94.5c-8.4-15-15.3-30.1-21.9-46c-5.8-14-17-27.9-33.8-26.3c-2.8,0.3-4.8,1.9-5.9,4
			C1026.8,571.3,1024.3,574.4,1025.6,578.5z M1010.1,712.2c-6.9,1.2-13.3,0.9-18.4-7.3c-4.5-7.2-5.1-16.5-2.6-24.5
			c2.4-7.6,7.9-13,12-19.7c1.7-2.7,2.8-5.5,3.7-8.5c0.3,1.6,0.5,3.2,0.4,4.8c-0.5,8-6.4,15-9,22.5
			C991.5,693.3,998,705.5,1010.1,712.2z"/>
		<path d="M1034.9,586.2c-13.9-23.8-5.8-53.2,18.1-66.7c15.4-8.6,1.6-32.3-13.8-23.6c-36.8,20.8-49.1,67.7-27.9,104.1
			C1020.2,615.2,1043.8,601.4,1034.9,586.2z"/>
		<path class="st30" d="M1042.5,976.1c17.3-23,38.9-78.3,38.9-78.3L1064,752.7c0,0-48.4,178.3-58,178.3s-151.3,28.9-160,29.8
			s-35.6-17.3-51.9-10.6s-51.9,21.1-51.9,21.1l39.9,35.1c0,0,10.5-20.2,29.8-17.3s17.8,0.9,35.6-5.3
			C865.3,977.5,1025.2,999.1,1042.5,976.1z"/>
		<g>
			
				<linearGradient id="SVGID_13_" gradientUnits="userSpaceOnUse" x1="807.678" y1="-1063.1575" x2="720.4673" y2="-1089.1044" gradientTransform="matrix(-1 0 0 1 1756.4341 1960)">
				<stop  offset="0" style="stop-color:#FFFFFF"/>
				<stop  offset="1" style="stop-color:#D4F4E7"/>
			</linearGradient>
			<path class="st31" d="M972.3,936.3c8.7,12.5,18.2,31.1,16.4,50.4c26.7-0.4,48.2-3.1,53.9-10.8c17.3-23,38.9-78.3,38.9-78.3
				l-17.4-145.1c0,0-48.4,178.3-58,178.3C1003.4,930.8,990.1,933.1,972.3,936.3z"/>
		</g>
		
			<linearGradient id="SVGID_14_" gradientUnits="userSpaceOnUse" x1="718.2071" y1="-504.2266" x2="703.2421" y2="-622.7939" gradientTransform="matrix(-1 0 0 1 1756.4341 1960)">
			<stop  offset="0" style="stop-color:#349399"/>
			<stop  offset="1" style="stop-color:#18056E"/>
		</linearGradient>
		<path class="st32" d="M1024.3,1668.4l73.6-421.2h-46.5l-72.8,416.5c-1.4,8.2,4.9,15.8,13.3,15.8h19.1
			C1017.6,1679.5,1023.2,1674.7,1024.3,1668.4z"/>
		<polygon class="st33" points="1242.7,1218.8 1323.5,1169.3 1352.4,1082.6 1352.4,860.9 1296.9,825.1 1196.4,825.1 1164,918.6 
			1122.6,1132.2 1101.3,1223.4 		"/>
		<path class="st30" d="M973.8,1529.2c1,45.1,2,97-16.3,124.9s12.5,39.4,41.3,0c28.8-39.4,7.7-48.9,25-77.8s-11.6-26.9-23.1-67.3
			s24.1-172.1-21.1-262.4c-45.2-90.3,36.5-103.8,36.5-103.8l97.1-37.5l-9.3-63.5c0,0-159.4,55.5-194.3,76
			C901.6,1122.5,972.8,1484.1,973.8,1529.2z"/>
		
			<linearGradient id="SVGID_15_" gradientUnits="userSpaceOnUse" x1="661.1161" y1="-501.7743" x2="705.811" y2="-640.64" gradientTransform="matrix(-1 0 0 1 1756.4341 1960)">
			<stop  offset="0" style="stop-color:#FFDB70"/>
			<stop  offset="1" style="stop-color:#F7AB00"/>
		</linearGradient>
		<path class="st34" d="M999.6,1504c-7.8-45.2,23.5-170.5-20-257.4c-45.2-90.3,36.5-103.8,36.5-103.8l97.1-37.5l-9.3-63.5
			c0,0-166.3,31.4-196.2,59.7c-48.5,46,57.2,352.6,65.6,420.8C982.6,1519.1,992,1511.5,999.6,1504z"/>
		<path class="st9" d="M998.8,1654c28.8-39.4,7.7-49,25-77.8c12.5-20.7,1.1-25.5-10.6-41.6c-3.8,5.4-8.9,15.2-10.6,29.8
			c-2.8,24.5-5.9,75.2-37.9,75.1l0,0c-2,5.4-4.4,10.3-7.2,14.6C939.3,1681.9,970,1693.5,998.8,1654z"/>
		
			<linearGradient id="SVGID_16_" gradientUnits="userSpaceOnUse" x1="714.8234" y1="-353.6179" x2="674.4727" y2="-1354.5374" gradientTransform="matrix(-1 0 0 1 1756.4341 1960)">
			<stop  offset="0.5278" style="stop-color:#C49A85"/>
			<stop  offset="1" style="stop-color:#BD7A5F"/>
		</linearGradient>
		<path class="st35" d="M1263.7,1032.3c-12.2-48.3,6.7-97.8,9.5-169.2c2.8-71.4-16.4-107.4-33-124c-16.5-16.6-51.9-15.8-77.8-21.6
			s-17.3-67.8-17.3-67.8s-68.2,14.4-58.6,27.9c9.6,13.5,8.6,54.9-9.1,63.1c-31.9,14.8-14.1,171.5,4.2,180.1
			c18.3,8.7,28.3,59.6,33.1,130.7c4.8,71.1-159,59.6-178.2,83.6s-51.9,304.6-54.8,410.3s-56.2,116.1-63.9,127.1s42.7,13.4,63.4,7.2
			c20.6-6.2,38.2-46.1,56.9-63.4s-17.3-48.5-20.2-53.3c-2.9-4.8-10.4-64.7,37.7-159.8s53.1-194.1,53.1-194.1s224.9,13.7,257.3-30.3
			C1298.4,1134.9,1275.9,1080.6,1263.7,1032.3z"/>
		
			<linearGradient id="SVGID_17_" gradientUnits="userSpaceOnUse" x1="713.9891" y1="-1310.4578" x2="624.7839" y2="-1434.3597" gradientTransform="matrix(-1 0 0 1 1756.4341 1960)">
			<stop  offset="0" style="stop-color:#C49A85"/>
			<stop  offset="1" style="stop-color:#B37056"/>
		</linearGradient>
		<path class="st36" d="M1164.8,621.9c7.3-48.4,7.6-136.2-114-127.6c0,0-44.8,25.9-34.5,79.9c1.6,8,2.9,16.3,4.2,24.6l6.2,38.3
			c6,32,14.6,57,35.5,55.9C1089.8,691.6,1157.7,670.2,1164.8,621.9z"/>
		
			<linearGradient id="SVGID_18_" gradientUnits="userSpaceOnUse" x1="935.3958" y1="-608.7594" x2="440.9672" y2="-755.8621" gradientTransform="matrix(-1 0 0 1 1756.4341 1960)">
			<stop  offset="0" style="stop-color:#FFDB70"/>
			<stop  offset="1" style="stop-color:#F7AB00"/>
		</linearGradient>
		<path class="st37" d="M1103.7,1037.4c0.3,4.6,0,14.6-3.9,17.3c-93.6,64.9-144.2,56.3-163.4,80.3c-13.5,16.8-33.6,160.1-45.4,280.6
			c-5.8,42.7-9.9,85.7-12.3,128.7c-0.1,2.1,1.6,4.5,3.7,4.9c8.5,1.6,17.2,2.6,25.9,2.5c6.6,0,14.6,0.2,20.3-3.5
			c11.6-7.5,6.2-27.6,6-38.9c-0.4-26.5,2.4-52.8,8.2-78.6c3.7-8.8,8-18,12.8-27.5c48.1-95.1,53.1-194.1,53.1-194.1
			s224.9,13.7,257.3-30.3c32.4-43.9,9.8-98.1-2.5-146.4c-0.8-3.2-1.4-6.4-2-9.6C1226.6,1030.4,1146.9,1045.8,1103.7,1037.4z"/>
		<path class="st9" d="M938,1616.5c14.8-13.6-4.5-35.9-14.7-47.1c-3.4,4.5-8.7,13.3-16.1,30.5c-13.9,32.6-29.9,63.8-62.5,51.8l0,0
			c-12.3,11.7-23.7,16.2-27,20.9c-7.7,11,42.7,13.4,63.4,7.2C901.8,1673.5,919.3,1633.6,938,1616.5z"/>
		
			<linearGradient id="SVGID_19_" gradientUnits="userSpaceOnUse" x1="629.9039" y1="-1136.8359" x2="526.8806" y2="-984.3629" gradientTransform="matrix(-1 0 0 1 1756.4341 1960)">
			<stop  offset="0" style="stop-color:#FFFFFF"/>
			<stop  offset="1" style="stop-color:#D4F4E7"/>
		</linearGradient>
		<path class="st38" d="M1239.8,739.1c-15.7-15.7-48.5-15.9-74-20.8c0.3-4.6-0.8-9.7-6.3-10.5c-2-0.3-4.1,0.3-5.5,2
			c-0.7,0.9-0.8,2.1-1.3,3c-0.1,0.7-0.2,1.4-0.2,2.2c-2.6,0.9-4.1,0.2-4.7-2c-1.5-2.6-5.2-1.2-5.4,1.5c0.7,3.8-1,6.2-4.9,7.2
			c-0.5-0.4-1.1-0.7-1.6-1.1c-1-0.3-1.8-1.2-3-1.5c-1.7-0.3-3.3-0.3-4.8,0.7c-1.3,0.9-1.9,2.2-2.3,3.7c-0.9,3.3,0.3,4.6-2.8,1.7
			c-3-2.6-5.9-5-10.1-3.1c-1.8,0.8-3.1,2.2-3.8,3.7c-1.5-2.2-4.5-4.4-5.8-4.4c-1.6,0-2.5,0.9-3.7,1.6c-0.7,0.4-0.6,2-1.2,2.4
			c-3.1,1.9-6.4-0.1-8.1-2.5c-2-2.7-5.9-1.1-5.3,2.2c-1.5,0.3-3.1,0.6-4.6,0.9c-0.2-3.4-4.6-3.8-5.7-0.8c-1.7,4.8-1.1,9.5,1.4,13.5
			v0.1c-0.3,1-0.5,1.9-0.6,2.8c-30.1,16.1-12.1,65.3-22.5,110.6c-10.6,46.2,10,60.1,28.3,68.7c8.7,4.1,13.3,17.8,16.2,38.8
			c0,2.7,9.9,20.9,10.4,40.5c0.5,19.5-8.2,40.4-4.1,41.5c0,0.8,0.1,1.5,0.1,2.3c0-0.8,2.4-1.8,3.8-1.7c6.6,0.3,12.6-2.7,19.2-2.2
			c6.9,0.5,13.4,3.1,20,4.8c28,7,56.4-0.8,83.7-7c7.7-1.7,15.3-3.4,23-5.2c4.2-1,8.8-1.9,11.7-5.3c4.3-5,3.1-12.1,2.9-18.1
			c-0.2-7.2-0.5-14.4-0.7-21.6c-0.6-17.8-1.2-35.7-1.8-53.5c3-21.4,6.2-44.7,7.3-71C1275.9,791.8,1256.6,755.8,1239.8,739.1z"/>
		<path class="st30" d="M897.2,992.6c0,0-23.8,35.8-22.1,38.9c1.7,3.2,11.6-2.9,18.3-11.5c6.8-8.6,14.2-19.7,14.2-19.7
			s-13,32.5-9.4,32.1s12.2-8.5,16.3-21.5s18.3,3.1,41.1-8.2s222.5,39.1,246,13.7c28.4-30.5,70.6-180.7,67.7-214.2
			c-2.8-33.5-27.6-71.5-45.2-72.8c0,0-38.1,3.3-40.9,70.3c-2.8,67-5.8,160-15.5,160c-9.7,0-161.1,15.2-200.7,13
			c-39.7-2.2-63.5,1.4-71.4,7.2c-8,5.7-44,39.6-40.4,42.5C858.8,1025.3,897.2,992.6,897.2,992.6z"/>
		
			<linearGradient id="SVGID_20_" gradientUnits="userSpaceOnUse" x1="1028.2625" y1="-892.2061" x2="1028.2626" y2="-950.4793" gradientTransform="matrix(-1 0 0 1 1756.4341 1960)">
			<stop  offset="0" style="stop-color:#40B5BC"/>
			<stop  offset="1" style="stop-color:#18056E"/>
		</linearGradient>
		<path class="st39" d="M1056.1,1069.6c8.5,0,15.3-6.9,15.3-15.3v-13.5c0-8.5-6.9-15.3-15.3-15.3H400.2c-8.5,0-15.3,6.9-15.3,15.3
			v13.5c0,8.5,6.9,15.3,15.3,15.3H1056.1z"/>
		<path class="st40" d="M1350.6,884.5l-14.1,196c0,18.8-13.7,35-32.3,37.6c-29.3,4.2-72.5,20.5-102.2,76.5l-193.3,14.5l-4.6,38h264
			c56.3,0,101.9-45.6,101.9-101.9l21.6-253.8c0-46.2-16.2-83.1-105.3-83.1h-16c0,0,2.6,12.8,2.8,29.6h17.3
			C1323.5,834.9,1350.6,859,1350.6,884.5z"/>
		
			<linearGradient id="SVGID_21_" gradientUnits="userSpaceOnUse" x1="498.5456" y1="-491.0769" x2="509.946" y2="-610.0399" gradientTransform="matrix(-1 0 0 1 1756.4341 1960)">
			<stop  offset="0" style="stop-color:#40B5BC"/>
			<stop  offset="1" style="stop-color:#18056E"/>
		</linearGradient>
		<path class="st41" d="M1283.8,1679.5l19.1-0.1c8.4,0,14.7-7.5,13.3-15.8l-72.8-416.5h-46.5l73.6,421.2
			C1271.6,1674.8,1277.2,1679.5,1283.8,1679.5L1283.8,1679.5z"/>
		<path class="st9" d="M973.7,1025.9c2.3,0,4.2-1.9,4.2-4.2v-7.3c0-2.3-1.9-4.2-4.2-4.2H574.2v6c0,5.3,6.4,9.7,14.2,9.7H973.7z"/>
		<path class="st9" d="M574.5,1010.6h263.2l-54.4-185.7c-2.9-9.9-12-16.6-22.2-16.6l-238.3,0.3c-6,0-10.3,5.9-8.5,11.6L574.5,1010.6
			z"/>
		
			<linearGradient id="SVGID_22_" gradientUnits="userSpaceOnUse" x1="1069.7002" y1="-1043.3309" x2="1099.9685" y2="-1043.3309" gradientTransform="matrix(-1 0 0 1 1756.4341 1960)">
			<stop  offset="0" style="stop-color:#1266B2"/>
			<stop  offset="1" style="stop-color:#021A58"/>
		</linearGradient>
		<path class="st42" d="M676.6,931.5c7.9-0.3,12.1-7.1,9.3-15.3s-11.4-14.7-19.3-14.4s-12.1,7.1-9.3,15.3
			C660.1,925.3,668.7,931.7,676.6,931.5z"/>
		<path class="st9" d="M1086.4,966.3c3.5,11.2,5.4,27.7-0.4,49.6c53,7.5,104.3,12.6,115.5,0.5c28.4-30.5,70.6-180.7,67.7-214.2
			c-2.8-33.5-27.6-71.5-45.2-72.8c0,0-38.1,3.3-40.9,70.3c-2.8,67-5.8,160-15.5,160C1163,959.7,1127.3,963.1,1086.4,966.3z"/>
		
			<linearGradient id="SVGID_23_" gradientUnits="userSpaceOnUse" x1="581.5761" y1="1069.9783" x2="657.8045" y2="923.9106" gradientTransform="matrix(-1 0 0 -1 1756.4341 1655.8436)">
			<stop  offset="0" style="stop-color:#000000"/>
			<stop  offset="1" style="stop-color:#47312C"/>
		</linearGradient>
		<path class="st43" d="M1044.2,559.8c9.6,7.4,21.8,10.8,33.8,11.1c6.1,0.2,13.3-1,20.3-1.2c0.5,0.2,1.1,0.3,1.6,0.5
			c5,1.8,10.3,4.5,13.2,9.2c2.1,3.5,2.2,7.3,1.6,11.1c-8.6,17.1-24.2,33.3-13,52.2c5.6,9.5,15.9,14.7,25.8,18.7
			c0.8,0.3,1.6,0.7,2.5,1c0,1,0,2,0,3.1c0.1,0.6,0,1.1,0,1.6c0.7,0.8,1.4,1.7,2,2.6c2.1,3.5,2.2,7.3,1.6,11.1
			c-8.6,17.1-24.2,33.3-13,52.2c5.6,9.5,15.9,14.7,25.8,18.7c2.3,0.9,4.7,1.9,7.2,2.9c1.4,5.2,1.4,10.7,0.3,17.4
			c-1.5,8.8-3.4,17.9-0.7,26.7c4.4,14,19.4,20.5,32.6,15.8c0.1,0,0.2,0.1,0.3,0.1c13,5.3,34.6,9.2,40.6-8.4
			c1.3-3.8,1.1-7.6,0.5-11.5c-0.8-5.2-2.4-9.7,3.4-12.1c1.7-0.7,3.4-1.3,5.1-1.9c11.7,2.6,24.3-1.6,28.6-15.1
			c7-21.9-20.1-27.3-28-42.2c1.4-9.8,7.5-19.5,4.6-30.1c-0.7-2.6-1.8-4.8-3.2-6.8c3.3-2.6,6-6.2,7.6-11.2
			c6.2-19.4-14.3-25.8-24.6-37.4c-0.4-3.8-1-7.5-2-11.2c2.2-7.7,5.5-15.4,3.2-23.7c-3-11-13.3-15.8-21.4-22.5
			c-0.2-6.8,1.1-13.7,1.5-20.7c0.5-9.5-0.4-19.2-3.7-28.2c-4.5-12.1-13.4-22.5-25.3-27.1c-4.3-5.1-9.3-9.7-15-13.6
			c-27.7-19.1-62-17.1-91.8-4.9c-10.8,3.2-20.6,8.8-27,17.4c-0.9-1.3-2.8-1.9-4.1-0.3C1020.7,521.2,1026.4,546.2,1044.2,559.8z
			 M1236.7,732.7c5.1,4.8,11.5,8.7,16.5,13.7c7.6,7.7,8.7,18.6-0.3,25.8c-2.7,2.2-5.8,3.3-8.9,3.7c0.8-0.8,1.5-1.7,2.2-2.8
			c7.8-13.1-2.5-25.7-8.2-36.9C1237.4,735.1,1236.9,733.9,1236.7,732.7z M1194.3,574.7c-2.4-3.3-3.9-7.2-4.2-11.3
			c-0.8-9.9-1-20.1-3-29.7c-1.3-6.3-3.5-12.2-6.5-17.7c7.7,6.6,12.7,16.4,14.6,26.9C1197.1,553.2,1194.9,564.1,1194.3,574.7z
			 M1234.1,681.9c-0.1,0-0.1,0-0.2,0.1c-1.4-1.3-2.9-2.6-4.5-3.8c3-10.2-3.4-19.9-8.4-28.9c0.1-1.3,0.1-2.7,0.1-4.1
			c4.3,3.6,9.2,6.9,13.2,10.9C1241.9,663.8,1243,674.7,1234.1,681.9z M1132.5,717c2.9,9.1,8.5,16.2,14,23.8c1.7,2.4,3.1,4.6,4.3,6.8
			c-7-3-13.9-6.1-19.2-10.6c-13.6-11.5-8.6-26.7-1-39.9C1130,703.7,1130.4,710.4,1132.5,717z M1127.6,650.6c1.1,1.5,2,3,2.9,4.4
			c0,0.5-0.1,0.9-0.2,1.4c0,0,0,0.1,0,0.2c-6.5-2.8-12.7-5.8-17.6-9.9c-13.6-11.5-8.6-26.7-1-39.9c-0.6,6.6-0.2,13.3,1.9,19.9
			C1116.5,635.8,1122.1,642.9,1127.6,650.6z M1032.9,519.5c0.1,0.4,0.3,0.8,0.5,1.2c1.3,19.3,17.2,33.9,34.8,40.9
			c3.4,1.3,6.9,2.3,10.4,3.4c-4.3,0-8.5-0.2-12.4-1.1C1046.1,559.3,1028.1,539.3,1032.9,519.5z"/>
		<g>
			<g>
				
					<linearGradient id="SVGID_24_" gradientUnits="userSpaceOnUse" x1="1273.2482" y1="-1238.4259" x2="1246.2556" y2="-1123.3673" gradientTransform="matrix(-1 0 0 1 1756.4341 1960)">
					<stop  offset="0" style="stop-color:#FFDB70"/>
					<stop  offset="1" style="stop-color:#F7AB00"/>
				</linearGradient>
				<path class="st44" d="M528.7,825.9c-6.5-23.3-15.8-45.5-15.3-70.1c0.5-25.9,9.1-50.9,17.4-75.1c1-3-2.7-5.7-5.3-4.1
					c-20.6,13.2-40.2,28.5-55.2,48.1c-24.5,32.1-35.2,76.9-13.6,113.4c4.8,7.9,10.9,15.1,18.3,20.7c8.1,6.2,17.8,10.6,24.9,18.2
					c18.2,19.5,4.2,47-6.4,66.3c-0.5,0.8-0.6,1.7-0.4,2.4c-0.2,0.3-0.4,0.6-0.6,0.9c-2.5,3.9,3.7,7.5,6.2,3.6
					c11.9-19.1,24-38.7,30.6-60.5C535.8,868.3,534.6,847.1,528.7,825.9z"/>
				<path class="st9" d="M482.4,829.1c-9.8-29-8.1-61,4.6-88.8c0.8-1.7-1.7-3.2-2.5-1.5c-11.4,24.8-14.3,52.9-8.1,79.6
					c3.2,14,9.2,26.6,16.6,38.9c9.1,15.1,19.1,31.5,13.8,49.8c-0.5,1.8,2.3,2.6,2.8,0.8C518.1,878.8,491,854.6,482.4,829.1z"/>
			</g>
			<g>
				
					<linearGradient id="SVGID_25_" gradientUnits="userSpaceOnUse" x1="1380.8722" y1="-1154.1324" x2="1276.382" y2="-1098.4849" gradientTransform="matrix(-1 0 0 1 1756.4341 1960)">
					<stop  offset="0" style="stop-color:#FFDB70"/>
					<stop  offset="1" style="stop-color:#F7AB00"/>
				</linearGradient>
				<path class="st45" d="M426.7,800.3c-4.7-16.7-1.8-35.2,8.6-49.1c1.9-2.7-0.7-7.4-4.1-5.7c-18.5,9.4-35.5,22.5-47.2,39.8
					c-18.7,27.7-21.5,65.5-0.3,92.8c11.6,15,28.1,20.8,45.9,25.3c18.2,4.5,52,15.8,42.1,41.5c-1.6,4.3,4.9,7.3,6.6,3
					c0.3-0.7,0.5-1.3,0.7-1.9c0.5-0.3,0.9-0.7,1.2-1.4c16-35.3,19-78.8-16-103.6c-8.2-5.8-17.2-10.6-24.3-17.8
					C433.6,816.9,429.2,808.7,426.7,800.3z"/>
				<path class="st9" d="M400.8,803.6c0.1-1.9-2.8-1.8-2.9,0c-0.8,17.4-1.1,36.1,8.5,51.4c7.2,11.5,18.9,17.6,31.3,21.8
					c14.7,5,31.2,7.7,43.4,17.9c13.8,11.4,17.9,31,11.5,47.4c-0.7,1.8,2.1,2.5,2.8,0.8c5.2-13.3,3.9-28.7-3.9-40.8
					c-7.4-11.5-19.6-17.4-32.2-21.6c-14.6-4.8-31.2-7.6-43-18.1C399.7,847.6,399.8,823.9,400.8,803.6z"/>
			</g>
			<g>
				
					<linearGradient id="SVGID_26_" gradientUnits="userSpaceOnUse" x1="1181.8495" y1="-1181.6929" x2="1247.448" y2="-1073.765" gradientTransform="matrix(-1 0 0 1 1756.4341 1960)">
					<stop  offset="0" style="stop-color:#FFDB70"/>
					<stop  offset="1" style="stop-color:#F7AB00"/>
				</linearGradient>
				<path class="st46" d="M478.3,880.1c0.9,23,10.2,44.2,19.8,64.8c-2.1,1.3-2.4,5.5,0.8,6.8c9.1,3.7,18.8,0.8,26-5.4
					c8.6-7.4,11.9-18.3,12.7-29.3c1.8-24.2-6.4-51.3,19.8-64.9c9.4-4.9,19.5-8,27.9-14.5c7.3-5.7,13.2-13.2,17.2-21.5
					c19.9-41-2.5-84.1-30.1-115c-1.8-2-5.4-0.9-6,1.6c-5.5,22.8-11.2,46.1-21.8,67.2c-5.2,10.5-11.7,20.2-19.6,28.8
					c-7.4,8-15.8,15.1-23.4,23C485.9,838,477.3,857.3,478.3,880.1z"/>
				<path class="st9" d="M574.7,753.8c7.5,21.9-7.1,41.8-21.6,56.8c-12.1,12.6-24.1,24.4-32.3,40c-15.4,29.3-18.5,64.2-8.3,95.7
					c0.6,1.7,3.4,1,2.8-0.8c-11.3-34.9-5.9-74.4,14.9-104.8c17.9-26.1,60-50.4,47.3-87.7C576.9,751.3,574.1,752,574.7,753.8z"/>
			</g>
			
				<linearGradient id="SVGID_27_" gradientUnits="userSpaceOnUse" x1="1255.4207" y1="-1029.5459" x2="1255.4207" y2="-944.6685" gradientTransform="matrix(-1 0 0 1 1756.4341 1960)">
				<stop  offset="0" style="stop-color:#5FE0DC"/>
				<stop  offset="1" style="stop-color:#03B4C4"/>
			</linearGradient>
			<path class="st47" d="M533.5,1019.1l9.9-93.2c0.4-4.3-2.9-8-7.2-8H501h-35.2c-4.3,0-7.7,3.7-7.2,8l9.9,93.2
				c0.4,3.6,3.5,6.4,7.2,6.4H501h25.3C530,1025.5,533.1,1022.8,533.5,1019.1z"/>
		</g>
	</g>
</g>
<text transform="matrix(1 0 0 1 -941.0214 -365.0225)" style="font-family:'MyriadPro-Regular'; font-size:12px;">Lorem ipsum</text>
<rect x="2116.5" y="1415.2" class="st40" width="308.5" height="308.5"/>
<rect x="2387.7" y="1528.9" class="st48" width="308.5" height="308.5"/>
<rect x="2059.1" y="1860.5" class="st49" width="308.5" height="308.5"/>
<rect x="1627.3" y="1793.3" class="st50" width="308.5" height="308.5"/>
<rect x="1935.8" y="887.6" class="st51" width="308.5" height="308.5"/>
<linearGradient id="SVGID_28_" gradientUnits="userSpaceOnUse" x1="2302.5925" y1="2446.1912" x2="2611.0928" y2="2446.1912">
	<stop  offset="0" style="stop-color:#18056E"/>
	<stop  offset="1" style="stop-color:#4AD3DB"/>
</linearGradient>
<rect x="2302.6" y="2291.9" class="st52" width="308.5" height="308.5"/>
<linearGradient id="SVGID_29_" gradientUnits="userSpaceOnUse" x1="1962.2108" y1="2911.6787" x2="2270.7109" y2="2911.6787">
	<stop  offset="0" style="stop-color:#483DF6"/>
	<stop  offset="1" style="stop-color:#4AD3DB"/>
</linearGradient>
<rect x="1962.2" y="2757.4" class="st53" width="308.5" height="308.5"/>
<rect x="1808" y="2212" class="st54" width="308.5" height="308.5"/>
<rect x="2425" y="1967.4" class="st55" width="308.5" height="308.5"/>
</svg>
